<?xml version="1.0" encoding="UTF-8" standalone="no"?>
<svg
   xmlns:dc="http://purl.org/dc/elements/1.1/"
   xmlns:cc="http://creativecommons.org/ns#"
   xmlns:rdf="http://www.w3.org/1999/02/22-rdf-syntax-ns#"
   xmlns:svg="http://www.w3.org/2000/svg"
   xmlns="http://www.w3.org/2000/svg"
   xmlns:sodipodi="http://sodipodi.sourceforge.net/DTD/sodipodi-0.dtd"
   xmlns:inkscape="http://www.inkscape.org/namespaces/inkscape"
   width="139.67789mm"
   height="139.67009mm"
   viewBox="0 0 139.67788 139.67009"
   version="1.1"
   id="svg8"
   sodipodi:docname="2020-08-20-critical-mass.svg">
  <title
     id="title908">Critical Mass Würzburg Logo</title>
  <defs
     id="defs2">
    <rect
       x="5.8539114"
       y="10.321713"
       width="72.172043"
       height="23.762915"
       id="rect898" />
    <rect
       id="rect906"
       height="23.762915"
       width="72.172043"
       y="10.321713"
       x="5.8539114" />
    <rect
       x="5.8539114"
       y="10.321713"
       width="72.172043"
       height="23.762915"
       id="rect912" />
    <linearGradient
       id="linearGradient4174">
      <stop
         offset="0"
         style="stop-color:#555753"
         id="stop4176" />
      <stop
         offset="1"
         style="stop-color:#91938e"
         id="stop4178" />
    </linearGradient>
    <radialGradient
       inkscape:collect="always"
       r="1151.6"
       gradientTransform="matrix(0.05375178,0,0,0.05390809,-69.31492,2.2870657)"
       cx="2312.8999"
       cy="977.91998"
       gradientUnits="userSpaceOnUse"
       id="radialGradient4129">
      <stop
         offset="0"
         style="stop-color:#555753"
         id="stop4125" />
      <stop
         offset=".96429"
         style="stop-color:#7e807c"
         id="stop4131" />
      <stop
         offset="1"
         style="stop-color:#a8aaa6"
         id="stop4127" />
    </radialGradient>
    <rect
       x="5.8539114"
       y="10.321713"
       width="72.172043"
       height="23.762915"
       id="rect379" />
    <rect
       id="rect1129"
       height="23.762915"
       width="72.172043"
       y="10.321713"
       x="5.8539114" />
    <rect
       x="5.8539114"
       y="10.321713"
       width="72.172043"
       height="23.762915"
       id="rect1131" />
    <rect
       id="rect1133"
       height="23.762915"
       width="72.172043"
       y="10.321713"
       x="5.8539114" />
    <rect
       x="5.8539114"
       y="10.321713"
       width="72.172043"
       height="23.762915"
       id="rect1150" />
  </defs>
  <sodipodi:namedview
     inkscape:pagecheckerboard="true"
     id="base"
     pagecolor="#ffffff"
     bordercolor="#666666"
     borderopacity="1.0"
     inkscape:pageopacity="0"
     inkscape:pageshadow="2"
     inkscape:zoom="1.3550014"
     inkscape:cx="210.67243"
     inkscape:cy="284.37845"
     inkscape:document-units="mm"
     inkscape:current-layer="layer5"
     inkscape:document-rotation="0"
     showgrid="false"
     fit-margin-top="0"
     fit-margin-left="0"
     fit-margin-right="0"
     fit-margin-bottom="0"
     inkscape:window-width="1920"
     inkscape:window-height="1053"
     inkscape:window-x="0"
     inkscape:window-y="0"
     inkscape:window-maximized="1"
     inkscape:snap-bbox="true"
     inkscape:bbox-paths="true"
     inkscape:bbox-nodes="true"
     inkscape:snap-bbox-edge-midpoints="true"
     inkscape:snap-bbox-midpoints="true"
     inkscape:object-paths="true"
     inkscape:snap-intersection-paths="true"
     inkscape:snap-global="true" />
  <metadata
     id="metadata5">
    <rdf:RDF>
      <cc:Work
         rdf:about="">
        <dc:format>image/svg+xml</dc:format>
        <dc:type
           rdf:resource="http://purl.org/dc/dcmitype/StillImage" />
        <dc:title>Critical Mass Würzburg Logo</dc:title>
        <cc:license
           rdf:resource="http://creativecommons.org/publicdomain/zero/1.0/" />
        <dc:date>08.20.2020</dc:date>
        <dc:creator>
          <cc:Agent>
            <dc:title>Schwarzlicht Würzburg</dc:title>
          </cc:Agent>
        </dc:creator>
        <dc:rights>
          <cc:Agent>
            <dc:title>CC0</dc:title>
          </cc:Agent>
        </dc:rights>
        <dc:source>https://www.schwarzlicht.org/p/2020-08-20-critical-mass.html</dc:source>
        <dc:language>German</dc:language>
        <dc:subject>
          <rdf:Bag>
            <rdf:li>Logo</rdf:li>
          </rdf:Bag>
        </dc:subject>
        <dc:description>Logo für die Aktionsform Critical Mass in Würzburg zur freien Verwendung (CC0). Die Autor:innen können für keine eventuellen Schäden im Zusammenhang mit diesem Logo verantwortlich gemacht werden.
Disclaimer: Dieses Logo steht in keinem Zusammenhang zu den Online-Präsenzen von Gruppen namens &quot;Critical Mass Würzburg&quot;.</dc:description>
        <dc:publisher>
          <cc:Agent>
            <dc:title>Schwarzlicht Würzburg</dc:title>
          </cc:Agent>
        </dc:publisher>
      </cc:Work>
      <cc:License
         rdf:about="http://creativecommons.org/publicdomain/zero/1.0/">
        <cc:permits
           rdf:resource="http://creativecommons.org/ns#Reproduction" />
        <cc:permits
           rdf:resource="http://creativecommons.org/ns#Distribution" />
        <cc:permits
           rdf:resource="http://creativecommons.org/ns#DerivativeWorks" />
      </cc:License>
    </rdf:RDF>
  </metadata>
  <g
     inkscape:label="blue"
     id="layer12"
     inkscape:groupmode="layer"
     sodipodi:insensitive="true">
    <circle
       r="64.339996"
       cy="69.835045"
       cx="69.838943"
       id="path1204"
       style="opacity:0.995;fill:#5e85d0;fill-opacity:1;stroke:none;stroke-width:3.35817;stroke-linecap:round;stroke-linejoin:round;stroke-dasharray:13.4327, 3.35817" />
  </g>
  <g
     inkscape:label="green"
     inkscape:groupmode="layer"
     id="layer1"
     transform="translate(19.838927,19.835126)"
     style="display:inline"
     sodipodi:insensitive="true">
    <path
       style="opacity:0.995;fill:#bcea7e;fill-opacity:1;stroke:none;stroke-width:3.77;stroke-linecap:square;stroke-linejoin:round;stroke-miterlimit:4;stroke-dasharray:none;stroke-opacity:1;paint-order:markers fill stroke"
       d="m 85.485456,42.731239 c 0,0 5.840073,-8.810498 16.191714,-11.557341 -0.14182,-0.389308 -0.28774,-0.776282 -0.43769,-1.16088 C 93.023809,8.9408947 72.701726,-5.000126 50.000219,-5.000126 H 49.895833 C 19.560944,-4.942726 -4.9999522,19.664672 -5.0000398,49.999621 -4.9999151,64.850866 1.006132,79.070865 11.652173,89.425638 31.414578,73.368207 77.589894,72.178578 82.000334,58.000166 v -3.000333 c 0,-5.890133 3.195813,-9.749564 3.485122,-12.268594 z"
       id="path1108"
       sodipodi:nodetypes="ccssccccsc" />
    <path
       style="opacity:0.995;fill:#bcea7e;fill-opacity:1;stroke:none;stroke-width:3.76976;stroke-linecap:square;stroke-linejoin:round;stroke-opacity:1;paint-order:markers fill stroke"
       d="m 98.00039,54.999833 v 3.000333 C 93.963803,83.048198 44.728748,85.15289 30.82568,101.54893 c 6.135224,2.2822 12.628591,3.45085 19.174539,3.45095 30.375661,-1.4e-4 54.999881,-24.6246 54.999741,-55.000259 1e-4,-4.714073 -0.60587,-9.408601 -1.80299,-13.96814 -3.982535,0.830985 -5.175229,6.94534 -5.175229,6.94534 -1.027259,3.335952 -0.02135,7.518661 -0.02135,12.023012 z"
       id="path1030"
       sodipodi:nodetypes="sccccccs" />
  </g>
  <g
     inkscape:groupmode="layer"
     id="layer2"
     inkscape:label="bridge"
     transform="translate(19.838927,19.835126)"
     style="display:inline"
     sodipodi:insensitive="true">
    <path
       id="path1101"
       style="display:inline;opacity:0.995;fill:#2e3436;fill-opacity:1;stroke:none;stroke-width:14.2479;stroke-linecap:square;stroke-linejoin:round;stroke-opacity:1;paint-order:markers fill stroke"
       d="m 470.13281,237.44531 c 0,0 -137.44633,-1.89005 -206.17383,-1.89003 -68.71447,1e-5 -206.134761,1.88976 -206.134761,1.88976 -1.105854,8.68407 -1.740209,17.51217 -1.740235,26.49632 8.6e-5,10.1835 0.768856,20.28483 2.232422,30.23828 h 24.22461 v -11.33985 c 0,-2.08737 0.210504,-4.12544 0.613281,-6.09375 0.402776,-1.9683 0.996696,-3.86707 1.761719,-5.67578 0.765023,-1.80871 1.702322,-3.52813 2.789062,-5.13672 1.08674,-1.60858 2.32348,-3.10668 3.691406,-4.47461 1.367927,-1.36792 2.866026,-2.60466 4.47461,-3.6914 1.608584,-1.08674 3.328007,-2.02209 5.136716,-2.78711 1.80871,-0.76502 3.70748,-1.35894 5.67578,-1.76172 1.96831,-0.40278 4.00638,-0.61523 6.09375,-0.61523 2.08738,0 4.12545,0.21245 6.09375,0.61523 1.96831,0.40278 3.86708,0.9967 5.67579,1.76172 1.8087,0.76502 3.52618,1.70037 5.13476,2.78711 1.60858,1.08674 3.10864,2.32348 4.47656,3.6914 1.36793,1.36793 2.60467,2.86603 3.69141,4.47461 1.08674,1.60859 2.02209,3.32801 2.78711,5.13672 0.76502,1.80871 1.35894,3.70748 1.76172,5.67578 0.40277,1.96831 0.61523,4.00638 0.61523,6.09375 v 11.33985 h 15.11914 v -11.33985 c 0,-2.08737 0.21051,-4.12544 0.61328,-6.09375 0.40278,-1.9683 0.9967,-3.86707 1.76172,-5.67578 0.76503,-1.80871 1.70233,-3.52813 2.78907,-5.13672 1.08673,-1.60858 2.32347,-3.10668 3.6914,-4.47461 1.36793,-1.36792 2.86603,-2.60466 4.47461,-3.6914 1.60858,-1.08674 3.32801,-2.02209 5.13672,-2.78711 1.80871,-0.76502 3.70747,-1.35894 5.67578,-1.76172 1.96831,-0.40278 4.00637,-0.61523 6.09375,-0.61523 2.08737,0 4.1255,0.21245 6.09375,0.61523 1.96825,0.40278 3.86716,0.9967 5.67578,1.76172 1.80862,0.76502 3.5263,1.70037 5.13477,2.78711 1.60847,1.08674 3.1068,2.32348 4.47461,3.6914 1.3678,1.36793 2.60478,2.86603 3.6914,4.47461 1.08663,1.60859 2.02218,3.32801 2.78711,5.13672 0.76493,1.80871 1.359,3.70748 1.76172,5.67578 0.40272,1.96831 0.61524,4.00638 0.61524,6.09375 v 11.33985 h 15.11914 v -11.33985 c 0,-2.08737 0.21051,-4.12544 0.61328,-6.09375 0.40277,-1.9683 0.9967,-3.86707 1.76172,-5.67578 0.76501,-1.80871 1.70233,-3.52813 2.78906,-5.13672 1.08673,-1.60858 2.32349,-3.10668 3.6914,-4.47461 1.36792,-1.36792 2.86604,-2.60466 4.47461,-3.6914 1.60858,-1.08674 3.32802,-2.02209 5.13672,-2.78711 1.80871,-0.76502 3.70748,-1.35894 5.67578,-1.76172 1.96831,-0.40278 4.00638,-0.61523 6.09375,-0.61523 2.08738,0 4.12544,0.21245 6.09375,0.61523 1.96832,0.40278 3.86707,0.9967 5.67579,1.76172 1.80872,0.76502 3.52617,1.70037 5.13476,2.78711 1.6086,1.08674 3.10667,2.32348 4.47461,3.6914 1.36794,1.36793 2.60661,2.86603 3.69336,4.47461 1.08675,1.60859 2.02208,3.32801 2.78711,5.13672 0.76503,1.80871 1.35894,3.70748 1.76172,5.67578 0.40278,1.96831 0.61523,4.00638 0.61523,6.09375 v 11.33985 h 15.11719 v -11.33985 c 0,-2.08737 0.2105,-4.12544 0.61328,-6.09375 0.40278,-1.9683 0.9967,-3.86707 1.76172,-5.67578 0.76502,-1.80871 1.70232,-3.52813 2.78906,-5.13672 1.08674,-1.60858 2.32348,-3.10668 3.69141,-4.47461 1.36793,-1.36792 2.86602,-2.60466 4.47461,-3.6914 1.60858,-1.08674 3.32801,-2.02209 5.13672,-2.78711 1.80871,-0.76502 3.70747,-1.35894 5.67578,-1.76172 1.96831,-0.40278 4.00637,-0.61523 6.09375,-0.61523 2.08737,0 4.12544,0.21245 6.09375,0.61523 1.96831,0.40278 3.86707,0.9967 5.67578,1.76172 1.80871,0.76502 3.52618,1.70037 5.13476,2.78711 1.60859,1.08674 3.10864,2.32348 4.47657,3.6914 1.36792,1.36793 2.60466,2.86603 3.6914,4.47461 1.08674,1.60859 2.02209,3.32801 2.78711,5.13672 0.76503,1.80871 1.35895,3.70748 1.76172,5.67578 0.40278,1.96831 0.61524,4.00638 0.61524,6.09375 v 11.33985 h 15.11914 v -11.33985 c 0,-2.08737 0.2105,-4.12544 0.61328,-6.09375 0.40277,-1.9683 0.99669,-3.86707 1.76172,-5.67578 0.76502,-1.80871 1.70232,-3.52813 2.78906,-5.13672 1.08674,-1.60858 2.32348,-3.10668 3.69141,-4.47461 1.36792,-1.36792 2.86602,-2.60466 4.47461,-3.6914 1.60858,-1.08674 3.328,-2.02209 5.13671,-2.78711 1.80871,-0.76502 3.70748,-1.35894 5.67579,-1.76172 1.9683,-0.40278 4.00637,-0.61523 6.09374,-0.61523 2.08738,0 4.12545,0.21245 6.09376,0.61523 1.9683,0.40278 3.86707,0.9967 5.67578,1.76172 1.80871,0.76502 3.52618,1.70037 5.13476,2.78711 1.60859,1.08674 3.10864,2.32348 4.47656,3.6914 1.36793,1.36793 2.60467,2.86603 3.69141,4.47461 1.08674,1.60859 2.02209,3.32801 2.78711,5.13672 0.76502,1.80871 1.35894,3.70748 1.76172,5.67578 0.40278,1.96831 0.61523,4.00638 0.61523,6.09375 v 11.33985 h 24.24024 c 1.43936,-9.8742 2.21489,-19.96485 2.21484,-30.23828 1.9e-4,-8.8685 -0.57129,-17.71801 -1.69922,-26.4961 z"
       sodipodi:nodetypes="caccccsssssssssssssssssccsssssssssssssssssccsssssssssssssssssccsssssssssssssssssccsssssssssssssssssccccc"
       transform="matrix(0.26458333,0,0,0.26458333,-19.838927,-19.835126)" />
  </g>
  <g
     inkscape:groupmode="layer"
     id="layer8"
     inkscape:label="bike"
     transform="translate(14.838927,14.835126)">
    <g
       inkscape:groupmode="layer"
       id="layer9"
       inkscape:label="tires"
       style="display:inline">
      <path
         id="path986"
         d="m 75.001953,52.5 c -4.135712,0 -7.5,3.364288 -7.5,7.5 0,4.135712 3.364288,7.5 7.5,7.5 4.135713,0 7.5,-3.364288 7.5,-7.5 0,-4.135712 -3.364287,-7.5 -7.5,-7.5 z m 0,1.085938 c 3.549616,-10e-7 6.414063,2.864446 6.414063,6.414062 0,3.549616 -2.864447,6.416016 -6.414063,6.416016 -3.549616,0 -6.416016,-2.8664 -6.416015,-6.416016 -10e-7,-3.549616 2.866399,-6.414063 6.416015,-6.414062 z"
         style="color:#000000;font-style:normal;font-variant:normal;font-weight:normal;font-stretch:normal;font-size:medium;line-height:normal;font-family:sans-serif;font-variant-ligatures:normal;font-variant-position:normal;font-variant-caps:normal;font-variant-numeric:normal;font-variant-alternates:normal;font-variant-east-asian:normal;font-feature-settings:normal;font-variation-settings:normal;text-indent:0;text-align:start;text-decoration:none;text-decoration-line:none;text-decoration-style:solid;text-decoration-color:#000000;letter-spacing:normal;word-spacing:normal;text-transform:none;writing-mode:lr-tb;direction:ltr;text-orientation:mixed;dominant-baseline:auto;baseline-shift:baseline;text-anchor:start;white-space:normal;shape-padding:0;shape-margin:0;inline-size:0;clip-rule:nonzero;display:inline;overflow:visible;visibility:visible;opacity:0.995;isolation:auto;mix-blend-mode:normal;color-interpolation:sRGB;color-interpolation-filters:linearRGB;solid-color:#000000;solid-opacity:1;vector-effect:none;fill:#2e3436;fill-opacity:1;fill-rule:nonzero;stroke:none;stroke-width:1.08448;stroke-linecap:square;stroke-linejoin:round;stroke-miterlimit:4;stroke-dasharray:none;stroke-dashoffset:0;stroke-opacity:1;paint-order:stroke markers fill;color-rendering:auto;image-rendering:auto;shape-rendering:auto;text-rendering:auto;enable-background:accumulate;stop-color:#000000;stop-opacity:1" />
      <path
         id="path991"
         d="m 55.001953,52.5 c -4.135712,0 -7.5,3.364288 -7.5,7.5 0,4.135712 3.364288,7.5 7.5,7.5 4.135713,0 7.5,-3.364288 7.5,-7.5 0,-4.135712 -3.364287,-7.5 -7.5,-7.5 z m 0,1.085938 c 3.549616,-10e-7 6.414063,2.864446 6.414063,6.414062 0,3.549616 -2.864447,6.416016 -6.414063,6.416016 -3.549616,0 -6.416016,-2.8664 -6.416015,-6.416016 -10e-7,-3.549616 2.866399,-6.414063 6.416015,-6.414062 z"
         style="color:#000000;font-style:normal;font-variant:normal;font-weight:normal;font-stretch:normal;font-size:medium;line-height:normal;font-family:sans-serif;font-variant-ligatures:normal;font-variant-position:normal;font-variant-caps:normal;font-variant-numeric:normal;font-variant-alternates:normal;font-variant-east-asian:normal;font-feature-settings:normal;font-variation-settings:normal;text-indent:0;text-align:start;text-decoration:none;text-decoration-line:none;text-decoration-style:solid;text-decoration-color:#000000;letter-spacing:normal;word-spacing:normal;text-transform:none;writing-mode:lr-tb;direction:ltr;text-orientation:mixed;dominant-baseline:auto;baseline-shift:baseline;text-anchor:start;white-space:normal;shape-padding:0;shape-margin:0;inline-size:0;clip-rule:nonzero;display:inline;overflow:visible;visibility:visible;opacity:0.995;isolation:auto;mix-blend-mode:normal;color-interpolation:sRGB;color-interpolation-filters:linearRGB;solid-color:#000000;solid-opacity:1;vector-effect:none;fill:#2e3436;fill-opacity:1;fill-rule:nonzero;stroke:none;stroke-width:1.08448;stroke-linecap:square;stroke-linejoin:round;stroke-miterlimit:4;stroke-dasharray:none;stroke-dashoffset:0;stroke-opacity:1;paint-order:stroke markers fill;color-rendering:auto;image-rendering:auto;shape-rendering:auto;text-rendering:auto;enable-background:accumulate;stop-color:#000000;stop-opacity:1" />
    </g>
    <g
       inkscape:groupmode="layer"
       id="layer10"
       inkscape:label="frame"
       style="display:inline">
      <g
         id="g1209"
         style="stroke:#bcea7e;stroke-width:0.4;stroke-linecap:round;stroke-linejoin:round;stroke-miterlimit:4;stroke-dasharray:none;stroke-opacity:1;paint-order:stroke fill markers">
        <path
           transform="matrix(0.26458333,0,0,0.26458333,-14.838927,-14.835126)"
           d="m 322.56055,223.73633 c -1.24848,0.004 -2.64673,0.27428 -4.16016,0.88476 a 1.2566948,1.2566948 0 0 0 -0.69531,1.63868 1.2566948,1.2566948 0 0 0 1.63281,0.69335 c 4.09171,-1.65048 5.96043,-0.38747 6.65039,0.97461 0.34499,0.68105 0.36551,1.45189 0.125,2.04493 -0.2405,0.59303 -0.68169,1.05431 -1.60937,1.24804 a 1.2568204,1.2568204 0 0 0 -0.95118,1.57813 l 1.53711,5.28906 -43.55078,2.63477 -5.00195,-9.65039 a 1.2566948,1.2566948 0 0 0 -1.20313,-0.67969 1.2566948,1.2566948 0 0 0 -0.48828,0.14062 1.2566948,1.2566948 0 0 0 -0.53906,1.69141 l 5.07227,9.78125 a 1.4456693,1.4456693 0 0 0 -0.14844,0.26562 l -16.60156,40.01563 a 1.4458138,1.4458138 0 0 0 1.33593,2.00195 h 31.34766 c 0.58779,2.6033 2.72006,4.6314 5.375,5.07032 v 1.66015 h -0.66797 c -0.41877,0 -0.75586,0.33709 -0.75586,0.75586 v 0.83008 c 0,0.41877 0.33709,0.75586 0.75586,0.75586 h 1.67774 a 1.0677165,1.0677165 0 0 0 0.0605,0.002 1.0677165,1.0677165 0 0 0 0.0859,-0.002 h 1.65039 c 0.41877,0 0.75586,-0.33709 0.75586,-0.75586 v -0.83008 c 0,-0.41877 -0.33709,-0.75586 -0.75586,-0.75586 h -0.66602 v -1.6582 c 3.13442,-0.51482 5.54688,-3.24509 5.54688,-6.51953 0,-1.92317 -0.83688,-3.65586 -2.1582,-4.86719 l 19.23437,-33.55664 c 0.53674,3.64037 1.38569,8.84621 2.62695,14.54297 1.10007,5.0486 2.47116,10.32488 4.16211,14.83008 1.69096,4.50518 3.59397,8.26655 6.31836,10.3496 a 1.6346457,1.6346457 0 0 0 2.28907,-0.30273 1.6346457,1.6346457 0 0 0 -0.30274,-2.28906 c -1.69342,-1.29479 -3.6397,-4.64393 -5.24023,-8.90821 -1.60053,-4.26424 -2.95938,-9.41797 -4.03907,-14.37304 -0.67303,-3.08891 -1.20077,-5.96802 -1.6621,-8.64844 l 0.0645,0.23633 c 0.11131,0.40371 0.70467,0.58845 1.33008,0.41601 0.6254,-0.17244 1.03904,-0.63535 0.92773,-1.03906 l -0.92383,-3.34961 c -0.11131,-0.4037 -0.70469,-0.59041 -1.33007,-0.41797 -0.28967,0.0799 -0.52562,0.22653 -0.69336,0.39649 -0.61086,-3.92173 -0.9375,-6.60352 -0.9375,-6.60352 a 1.6346457,1.6346457 0 0 0 -0.16407,-0.54492 1.2566948,1.2566948 0 0 0 -0.0352,-0.16211 l -1.6836,-5.78906 c 0.89925,-0.52478 1.93126,-0.96146 2.28907,-1.84375 0.53545,-1.32032 0.43568,-2.82729 -0.22266,-4.12695 -0.65835,-1.29967 -1.90068,-2.32889 -3.58789,-2.79102 -0.63271,-0.1733 -1.32709,-0.26602 -2.07617,-0.26367 z m 1.04101,17.33789 -20.26758,35.34961 c -0.16635,-0.041 -0.33492,-0.0735 -0.50586,-0.10156 v -1.65235 h 0.66602 c 0.41877,0 0.75586,-0.33709 0.75586,-0.75586 v -0.83008 c 0,-0.41877 -0.33709,-0.75586 -0.75586,-0.75586 h -1.67578 a 1.0677165,1.0677165 0 0 0 -0.0605,-0.002 1.0677165,1.0677165 0 0 0 -0.0879,0.002 h -1.65039 c -0.41877,0 -0.75586,0.33709 -0.75586,0.75586 v 0.83008 c 0,0.41877 0.33709,0.75586 0.75586,0.75586 h 0.66797 v 1.65235 c -0.19695,0.0326 -0.39123,0.0734 -0.58203,0.12304 L 283.2227,243.51562 Z m -42.59765,4.4668 16.52539,32.23046 c -1.09907,0.91989 -1.89521,2.188 -2.21875,3.63086 h -29.18946 z m 17.69921,34.52148 0.6875,1.33984 h -1.50195 c 0.18513,-0.50187 0.46205,-0.95317 0.81445,-1.33984 z m 6.23243,0.14648 c 0.59135,0.71434 0.95898,1.62238 0.95898,2.63282 0,1.9288 -1.29443,3.51758 -3.06641,3.98632 v -3.01367 a 1.4458138,1.4458138 0 0 0 0.25,-0.38281 1.6346457,1.6346457 0 0 0 0.0996,-0.1543 z m -7.04493,4.08008 h 2.79688 v 2.53711 c -1.29984,-0.34543 -2.33505,-1.29097 -2.79688,-2.53711 z"
           style="color:#000000;font-style:normal;font-variant:normal;font-weight:normal;font-stretch:normal;font-size:medium;line-height:normal;font-family:sans-serif;font-variant-ligatures:normal;font-variant-position:normal;font-variant-caps:normal;font-variant-numeric:normal;font-variant-alternates:normal;font-variant-east-asian:normal;font-feature-settings:normal;font-variation-settings:normal;text-indent:0;text-align:start;text-decoration:none;text-decoration-line:none;text-decoration-style:solid;text-decoration-color:#000000;letter-spacing:normal;word-spacing:normal;text-transform:none;writing-mode:lr-tb;direction:ltr;text-orientation:mixed;dominant-baseline:auto;baseline-shift:baseline;text-anchor:start;white-space:normal;shape-padding:0;shape-margin:0;inline-size:0;clip-rule:nonzero;display:inline;overflow:visible;visibility:visible;opacity:1;isolation:auto;mix-blend-mode:normal;color-interpolation:sRGB;color-interpolation-filters:linearRGB;solid-color:#000000;solid-opacity:1;vector-effect:none;fill:#d03535;fill-opacity:1;fill-rule:nonzero;stroke:#bcea7e;stroke-width:1.51181;stroke-linecap:round;stroke-linejoin:round;stroke-miterlimit:4;stroke-dasharray:none;stroke-dashoffset:0;stroke-opacity:1;paint-order:stroke fill markers;color-rendering:auto;image-rendering:auto;shape-rendering:auto;text-rendering:auto;enable-background:accumulate;stop-color:#000000;stop-opacity:1"
           id="path1025" />
      </g>
      <g
         id="g1217"
         style="fill:#d03535;fill-opacity:1">
        <path
           id="path1004"
           d="m 71.742824,56.857654 c 0.0267,-0.0011 0.0527,0.0088 0.0718,0.02739 0.0385,0.03665 0.0404,0.09751 0.004,0.136425 -1.31965,1.40921 -1.55474,3.51818 -0.57826,5.183663 0.026,0.04537 0.0114,0.103207 -0.0331,0.130742 -0.0458,0.02741 -0.10519,0.01262 -0.13281,-0.03307 -1.01951,-1.738876 -0.77422,-3.942832 0.60358,-5.41414 0.0168,-0.0182 0.0399,-0.02929 0.0646,-0.03101 z"
           style="display:inline;opacity:0.995;fill:#d03535;fill-opacity:1;stroke:none;stroke-width:3.76976;stroke-linecap:square;stroke-linejoin:round;stroke-opacity:1;paint-order:markers fill stroke" />
        <path
           id="path1002"
           d="m 54.643085,55.462908 c 0.0526,-0.0037 0.0985,0.03534 0.10336,0.08785 0.005,0.05338 -0.0345,0.100586 -0.0879,0.10542 -1.92903,0.152069 -3.52698,1.555512 -3.92379,3.449402 -0.39682,1.893893 0.50135,3.822504 2.2071,4.736145 1.70574,0.913638 3.809439,0.592746 5.166089,-0.787032 0.0378,-0.03738 0.0986,-0.03738 0.13642,0 0.0383,0.03728 0.0392,0.09852 0.002,0.136943 -1.41642,1.440577 -3.613599,1.774004 -5.394499,0.820105 -1.7809,-0.953897 -2.72113,-2.968093 -2.30683,-4.945436 0.41429,-1.977342 2.08391,-3.444629 4.09794,-3.603397 z"
           style="display:inline;opacity:0.995;fill:#d03535;fill-opacity:1;stroke:none;stroke-width:3.76976;stroke-linecap:square;stroke-linejoin:round;stroke-opacity:1;paint-order:markers fill stroke" />
        <path
           id="path914-4"
           d="m 55.868503,45.03234 a 0.43254327,0.43254327 0 0 0 -0.42773,0.476562 c 0.0389,0.36931 0.31601,0.642971 0.58398,0.773438 0.26797,0.130466 0.55194,0.17831 0.82227,0.203125 0.53964,0.04954 1.04109,-0.01344 1.04297,-0.01367 0,0 1.30117,-0.148091 2.19921,-0.302734 a 0.43254327,0.43254327 0 0 0 -0.004,-0.853515 c -1.08476,-0.175151 -3.40066,-0.285031 -4.2168,-0.283203 z"
           style="color:#000000;font-style:normal;font-variant:normal;font-weight:normal;font-stretch:normal;font-size:medium;line-height:normal;font-family:sans-serif;font-variant-ligatures:normal;font-variant-position:normal;font-variant-caps:normal;font-variant-numeric:normal;font-variant-alternates:normal;font-variant-east-asian:normal;font-feature-settings:normal;font-variation-settings:normal;text-indent:0;text-align:start;text-decoration:none;text-decoration-line:none;text-decoration-style:solid;text-decoration-color:#000000;letter-spacing:normal;word-spacing:normal;text-transform:none;writing-mode:lr-tb;direction:ltr;text-orientation:mixed;dominant-baseline:auto;baseline-shift:baseline;text-anchor:start;white-space:normal;shape-padding:0;shape-margin:0;inline-size:0;clip-rule:nonzero;display:inline;overflow:visible;visibility:visible;isolation:auto;mix-blend-mode:normal;color-interpolation:sRGB;color-interpolation-filters:linearRGB;solid-color:#000000;solid-opacity:1;vector-effect:none;fill:#2e3436;fill-opacity:1;fill-rule:nonzero;stroke:none;stroke-width:0.17;stroke-linecap:round;stroke-linejoin:round;stroke-miterlimit:4;stroke-dasharray:none;stroke-dashoffset:0;stroke-opacity:1;paint-order:stroke fill markers;color-rendering:auto;image-rendering:auto;shape-rendering:auto;text-rendering:auto;enable-background:accumulate;stop-color:#000000" />
      </g>
    </g>
    <g
       inkscape:label="tire-center"
       id="layer13"
       inkscape:groupmode="layer"
       style="display:inline">
      <path
         d="m 55.501072,60.000843 a 0.5,0.5 0 0 1 -0.5,0.5 0.5,0.5 0 0 1 -0.5,-0.5 0.5,0.5 0 0 1 0.5,-0.5 0.5,0.5 0 0 1 0.5,0.5 z"
         style="display:inline;opacity:0.995;fill:#2e3436;fill-opacity:1;stroke:none;stroke-width:0.0779333;stroke-linecap:square;stroke-linejoin:round;stroke-miterlimit:4;stroke-dasharray:none;stroke-opacity:1;paint-order:stroke markers fill"
         id="circle1038-0" />
      <path
         d="m 75.501068,60.000843 a 0.5,0.5 0 0 1 -0.5,0.5 0.5,0.5 0 0 1 -0.5,-0.5 0.5,0.5 0 0 1 0.5,-0.5 0.5,0.5 0 0 1 0.5,0.5 z"
         style="display:inline;opacity:0.995;fill:#2e3436;fill-opacity:1;stroke:none;stroke-width:0.0779333;stroke-linecap:square;stroke-linejoin:round;stroke-miterlimit:4;stroke-dasharray:none;stroke-opacity:1;paint-order:stroke markers fill"
         id="circle1040-5" />
    </g>
  </g>
  <g
     inkscape:groupmode="layer"
     id="layer6"
     inkscape:label="alternative-text"
     transform="translate(19.838927,19.835126)"
     style="display:none">
    <text
       xml:space="preserve"
       id="text896"
       style="font-style:normal;font-variant:normal;font-weight:normal;font-stretch:normal;font-size:10.5833px;line-height:1.25;font-family:'Permanent Marker';-inkscape-font-specification:'Permanent Marker, Normal';font-variant-ligatures:normal;font-variant-caps:normal;font-variant-numeric:normal;font-variant-east-asian:normal;letter-spacing:0px;word-spacing:0px;white-space:pre;shape-inside:url(#rect898);fill:#2e3436;fill-opacity:1;stroke:none;"
       transform="matrix(1.2692363,0,0,1.2692363,7.094126,-3.6710405)"><tspan
         x="5.8535156"
         y="21.283264"><tspan
           style="font-style:normal;font-variant:normal;font-weight:normal;font-stretch:normal;font-size:10.5833px;font-family:'Permanent Marker';-inkscape-font-specification:'Permanent Marker, Normal';font-variant-ligatures:normal;font-variant-caps:normal;font-variant-numeric:normal;font-variant-east-asian:normal">CRITICAL</tspan></tspan></text>
    <text
       transform="matrix(1.2692363,0,0,1.2692363,38.444046,10.394146)"
       style="font-style:normal;font-variant:normal;font-weight:normal;font-stretch:normal;font-size:10.5833px;line-height:1.25;font-family:'Permanent Marker';-inkscape-font-specification:'Permanent Marker, Normal';font-variant-ligatures:normal;font-variant-caps:normal;font-variant-numeric:normal;font-variant-east-asian:normal;letter-spacing:0px;word-spacing:0px;white-space:pre;shape-inside:url(#rect906);fill:#2e3436;fill-opacity:1;stroke:none;"
       id="text904"
       xml:space="preserve"><tspan
         x="5.8535156"
         y="21.283264"><tspan
           style="font-style:normal;font-variant:normal;font-weight:normal;font-stretch:normal;font-size:10.5833px;font-family:'Permanent Marker';-inkscape-font-specification:'Permanent Marker, Normal';font-variant-ligatures:normal;font-variant-caps:normal;font-variant-numeric:normal;font-variant-east-asian:normal;fill:#2e3436;fill-opacity:1">MASS</tspan></tspan></text>
    <text
       xml:space="preserve"
       id="text377"
       style="font-style:normal;font-variant:normal;font-weight:normal;font-stretch:normal;font-size:10.5833px;line-height:1.25;font-family:Caveat;-inkscape-font-specification:'Caveat, Normal';font-variant-ligatures:normal;font-variant-caps:normal;font-variant-numeric:normal;font-variant-east-asian:normal;letter-spacing:0px;word-spacing:0px;white-space:pre;shape-inside:url(#rect379);fill:#2e3436;fill-opacity:1;stroke:none;"
       transform="matrix(0.99670454,0,0,0.99670454,-3.5681113,52.606305)"><tspan
         x="5.8535156"
         y="19.708644"><tspan
           style="font-style:normal;font-variant:normal;font-weight:normal;font-stretch:normal;font-size:10.5833px;font-family:Caveat;-inkscape-font-specification:'Caveat, Normal';font-variant-ligatures:normal;font-variant-caps:normal;font-variant-numeric:normal;font-variant-east-asian:normal">WÜRZBURG</tspan></tspan></text>
  </g>
  <g
     inkscape:groupmode="layer"
     id="layer5"
     inkscape:label="text"
     style="display:inline">
    <g
       style="font-style:normal;font-variant:normal;font-weight:bold;font-stretch:normal;font-size:10.5833px;line-height:1.25;font-family:Caveat;-inkscape-font-specification:'Caveat, Bold';font-variant-ligatures:normal;font-variant-caps:normal;font-variant-numeric:normal;font-variant-east-asian:normal;letter-spacing:0px;word-spacing:0px;white-space:pre;shape-inside:url(#rect1129);display:inline;fill:#2e3436;fill-opacity:1;stroke:none"
       id="text1115"
       transform="matrix(1.4792177,0,0,1.4792177,31.889871,12.54117)"
       aria-label="CRITICAL">
      <path
         id="path918"
         style="font-style:normal;font-variant:normal;font-weight:bold;font-stretch:normal;font-size:10.5833px;font-family:Caveat;-inkscape-font-specification:'Caveat, Bold';font-variant-ligatures:normal;font-variant-caps:normal;font-variant-numeric:normal;font-variant-east-asian:normal"
         d="M 8.1924248,20.407142 Q 7.8643426,20.290726 7.5574269,20.068477 7.2610945,19.846227 7.1235116,19.507562 6.9541788,19.031313 6.9541788,18.385732 q 0,-0.624415 0.074083,-1.05833 0.074083,-0.444499 0.2539992,-0.89958 l 0.09525,-0.22225 q 0.1693328,-0.433915 0.2434159,-0.571498 0.1799161,-0.412749 0.6349979,-1.068913 0.423332,-0.634998 0.6667479,-0.941914 0.2539992,-0.317499 0.5185817,-0.539748 0.2645825,-0.232833 0.7725808,-0.582082 0.306916,-0.222249 0.751414,-0.222249 0.349249,0 0.634998,0.169333 0.296333,0.169333 0.444499,0.529165 0.105833,0.179916 0.105833,0.497415 0,0.507998 -0.243416,1.100663 -0.243416,0.592665 -0.582081,0.899581 -0.07408,0.07408 -0.201083,0.07408 -0.127,0 -0.275166,-0.07408 -0.148166,-0.07408 -0.264582,-0.179916 -0.09525,-0.179917 -0.105833,-0.211666 -0.01058,-0.03175 0.04233,-0.04233 0.09525,-0.116416 0.275166,-0.444498 0.190499,-0.338666 0.253999,-0.529165 l 0.0635,-0.296333 q 0.0635,-0.275165 0.0635,-0.359832 0,-0.09525 -0.07408,-0.169333 -0.03175,-0.03175 -0.08467,-0.03175 -0.08467,0 -0.296333,0.105833 -0.243415,0.105833 -0.582081,0.433916 -0.3280823,0.317499 -0.6561646,0.761997 -0.4868318,0.634998 -0.7514143,1.047747 -0.2539992,0.412749 -0.3915821,0.836081 l -0.1164163,0.275165 q 0.010583,0.04233 -0.03175,0.211666 -0.042333,0.169333 -0.09525,0.275166 -0.1481661,0.613832 -0.1481661,1.111247 0,0.391582 0.074083,0.677331 0.084666,0.285749 0.2328325,0.423332 0.084666,0.07408 0.2434159,0.07408 0.1693328,0 0.3809988,-0.07408 0.2222493,-0.08467 0.4656652,-0.1905 0.2434159,-0.105833 0.3386656,-0.148166 0.2434159,-0.09525 0.4550819,-0.222249 0.222249,-0.127 0.328082,-0.232833 0.275166,-0.201082 0.444499,-0.201082 0.137583,-0.04233 0.211666,0.08467 0.08467,0.127 0.08467,0.349249 0,0.148166 -0.201082,0.359832 -0.201083,0.201083 -0.476249,0.359832 -0.116416,0.116417 -0.518582,0.275166 -0.3386652,0.243416 -0.7937471,0.433915 -0.4444986,0.1905 -0.8149141,0.1905 -0.084666,0 -0.211666,-0.02117 z" />
      <path
         id="path920"
         style="font-style:normal;font-variant:normal;font-weight:bold;font-stretch:normal;font-size:10.5833px;font-family:Caveat;-inkscape-font-specification:'Caveat, Bold';font-variant-ligatures:normal;font-variant-caps:normal;font-variant-numeric:normal;font-variant-east-asian:normal"
         d="m 12.192902,20.07906 q 0,0 -0.264582,-0.201083 -0.264583,-0.190499 -0.264583,-0.518581 0.03175,-0.22225 0.179916,-0.709081 0.148166,-0.497416 0.338666,-1.015997 l 0.02117,-0.127 q 0.05292,-0.275166 0.09525,-0.359832 0.05292,-0.08467 0.116416,-0.116416 0.0635,-0.03175 0.0635,-0.1905 0,-0.09525 -0.02117,-0.137583 0,-0.137583 0.253999,-0.86783 0.253999,-0.730248 0.719664,-1.788578 l 0.04233,-0.07408 q 0.04233,-0.05292 0.04233,-0.09525 -0.116417,-0.116416 -0.211666,-0.232832 -0.08467,-0.116417 -0.08467,-0.285749 0,-0.09525 0.08467,-0.201083 0.08467,-0.105833 0.306915,-0.285749 0.465665,-0.253999 0.761998,-0.264583 0.05292,0 0.158749,0.02117 0.380999,0.02117 0.539749,0.07408 0.158749,0.04233 0.264582,0.105833 0.09525,0.07408 0.211666,0.07408 0.253999,0.03175 0.634998,0.232833 0.391582,0.201082 0.455082,0.285749 0.201083,0.169333 0.359832,0.486832 0.169333,0.306915 0.201083,0.677331 0,0.423332 -0.0635,0.656164 -0.05292,0.22225 -0.285749,0.550332 -0.677331,1.132413 -1.98966,1.894411 l -0.07408,0.137583 q 0,0.137582 0.275165,0.412748 0.275166,0.264583 0.603248,0.518582 0.338666,0.253999 0.423332,0.285749 h 0.02117 q 0.05292,0 0.105833,-0.01058 0.05292,-0.01058 0.105833,-0.01058 0.0635,0 0.116416,0.08467 0.0635,0.07408 0.0635,0.243416 -0.01058,0.116416 -0.07408,0.253999 -0.05292,0.126999 -0.08467,0.148166 -0.02117,0 -0.137583,0.127 -0.116417,0.137583 -0.201083,0.137583 -0.116416,0 -0.253999,-0.09525 -0.359832,-0.116416 -0.709081,-0.412749 -0.338666,-0.306916 -0.730248,-0.793747 l -0.253999,-0.253999 q -0.105833,-0.127 -0.15875,-0.15875 -0.05292,-0.04233 -0.116416,-0.04233 -0.04233,0 -0.127,0.02117 -0.07408,0.01058 -0.137582,0.01058 -0.09525,0 -0.22225,-0.116417 -0.126999,-0.126999 -0.169333,-0.126999 -0.03175,0 -0.08467,0.137583 -0.05292,0.126999 -0.0635,0.169333 -0.148166,0.391582 -0.211666,0.497415 v 0.09525 q -0.01058,0.09525 -0.07408,0.370416 -0.05292,0.275166 -0.148166,0.529165 -0.09525,0.253999 -0.190499,0.253999 -0.02117,-0.01058 -0.05292,-0.04233 -0.02117,-0.02117 -0.04233,-0.02117 -0.02117,0 -0.03175,0.03175 -0.01058,0.04233 -0.02117,0.04233 z m 1.725078,-2.868074 q 0.232833,-0.201083 0.243416,-0.211666 l 0.232832,-0.08467 q 0.857248,-0.423332 1.375829,-1.259412 0.0635,-0.04233 0.15875,-0.201083 0.105833,-0.169333 0.137583,-0.190499 0.03175,-0.04233 0.08467,-0.105833 0.05292,-0.07408 0.05292,-0.116417 0,-0.04233 -0.03175,-0.105833 0,-0.0635 0.05292,-0.243416 0.05292,-0.137582 0.05292,-0.232832 0,-0.15875 -0.243416,-0.306916 -0.243416,-0.148166 -0.751414,-0.380999 -0.08467,0 -0.211666,-0.03175 -0.116417,-0.04233 -0.169333,-0.05292 -0.1905,-0.0635 -0.222249,-0.0635 -0.05292,0 -0.09525,0.09525 -0.04233,0.09525 -0.105833,0.306916 -0.0635,0.222249 -0.127,0.349248 -0.05292,0.127 -0.126999,0.15875 -0.02117,0.105833 -0.232833,0.687914 -0.560915,1.682745 -0.560915,1.767411 0,0.02117 0.07408,0.08467 0.07408,0.05292 0.116417,0.05292 0.04233,0 0.04233,-0.03175 0.01058,0 0.04233,0.02117 0.04233,0.01058 0.07408,0.03175 z" />
      <path
         id="path922"
         style="font-style:normal;font-variant:normal;font-weight:bold;font-stretch:normal;font-size:10.5833px;font-family:Caveat;-inkscape-font-specification:'Caveat, Bold';font-variant-ligatures:normal;font-variant-caps:normal;font-variant-numeric:normal;font-variant-east-asian:normal"
         d="m 17.981959,20.14256 q -0.07408,-0.105833 -0.254,-0.148166 -0.169332,-0.03175 -0.550331,-0.01058 -0.222249,0.03175 -0.455082,-0.07408 -0.222249,-0.105833 -0.179916,-0.243416 0.01058,-0.137583 0.306916,-0.275166 0.306915,-0.148166 0.730247,-0.158749 l 0.444499,-0.01058 0.105833,-0.211666 q 0.03175,-0.0635 0.04233,-0.127 0.01058,-0.07408 0.03175,-0.126999 l 0.09525,-0.380999 0.158749,-0.507999 q 0.317499,-0.96308 0.412749,-1.354662 0.05292,-0.127 0.169333,-0.507998 0.116416,-0.380999 0.179916,-0.624415 0.486832,-1.492245 0.402165,-1.513412 -0.105833,-0.01058 -0.560915,0.04233 -0.455082,0.04233 -0.507998,0.07408 -0.05292,0.07408 -0.179916,-0.02117 -0.127,-0.09525 -0.15875,-0.211666 -0.01058,-0.03175 -0.01058,-0.105833 0,-0.148166 0.07408,-0.1905 0.105833,-0.09525 0.539748,-0.211666 0.444499,-0.116416 0.825498,-0.169332 0.179916,-0.02117 0.359832,-0.07408 0.190499,-0.0635 0.285749,-0.148166 0.222249,-0.07408 0.370415,-0.0635 0.07408,0.05292 0.359833,0.05292 0.243416,0 0.370415,-0.01058 0.275166,-0.02117 0.380999,-0.02117 0.634998,0 0.761998,0.296332 0.02117,0.105833 0.02117,0.15875 0,0.137583 -0.08467,0.222249 -0.07408,0.08467 -0.211666,0.07408 -0.1905,0.05292 -0.709081,0.0635 -0.698498,0.0635 -0.751415,0.148166 -0.05292,0.05292 -0.08467,0.09525 -0.02117,0.04233 -0.05292,0.08467 0.01058,0.09525 -0.190499,0.687915 l -0.190499,0.560915 q -0.296333,0.920747 -0.380999,1.132413 -0.07408,0.179916 -0.105833,0.370415 -0.08467,0.285749 -0.15875,0.550332 -0.0635,0.253999 -0.137582,0.486832 l -0.412749,1.471078 0.634998,-0.05292 q 0.624415,-0.0635 0.751414,-0.0635 0.105833,0 0.137583,0.02117 0.03175,0.02117 0.04233,0.07408 0.01058,0.04233 0.02117,0.0635 0.09525,0.126999 0.09525,0.243415 0,0.1905 -0.253999,0.306916 -0.253999,0.116416 -0.698497,0.105833 -0.476249,0.02117 -0.772581,0.03175 -0.296333,0.02117 -0.370416,0.05292 -0.07408,0.03175 -0.07408,0.105833 0.01058,0.09525 -0.0635,0.148166 -0.07408,0.0635 -0.190499,0.0635 -0.201083,0 -0.359832,-0.169333 z" />
      <path
         id="path924"
         style="font-style:normal;font-variant:normal;font-weight:bold;font-stretch:normal;font-size:10.5833px;font-family:Caveat;-inkscape-font-specification:'Caveat, Bold';font-variant-ligatures:normal;font-variant-caps:normal;font-variant-numeric:normal;font-variant-east-asian:normal"
         d="m 22.91376,20.121393 q -0.148166,0.04233 -0.222249,0.04233 -0.1905,0 -0.306916,-0.148166 -0.116416,-0.148166 -0.116416,-0.444498 0,-0.423332 0.253999,-1.100664 l 0.116416,-0.349248 q 0.529165,-1.545162 0.687915,-1.777995 0.05292,-0.126999 0.05292,-0.264582 0,-0.05292 0.05292,-0.15875 0.05292,-0.105833 0.08467,-0.169333 0.127,-0.232832 0.127,-0.349248 0,-0.04233 0.126999,-0.423332 0.127,-0.391583 0.253999,-0.592665 0.0635,-0.15875 0.148167,-0.306916 0.08467,-0.158749 0.08467,-0.201083 0,-0.02117 -0.232833,-0.02117 -0.328082,0 -0.814914,0.03175 -0.476248,0.03175 -0.634998,0.07408 -0.222249,0.05292 -0.264582,0.04233 -0.05292,-0.02117 -0.15875,-0.201083 -0.105833,-0.190499 -0.105833,-0.338665 0,-0.127 0.08467,-0.169333 0.169333,-0.105833 0.338665,-0.137583 0.179916,-0.03175 0.497415,-0.05292 0.328083,-0.02117 0.455082,-0.04233 0.22225,0 0.412749,-0.02117 0.201083,-0.03175 0.232833,-0.03175 0.08467,0 0.211666,-0.03175 0.296332,-0.05292 0.402165,-0.05292 0.148166,0 0.296332,-0.03175 0.169333,-0.02117 0.22225,-0.02117 h 0.656164 q 0.137583,0 0.380999,-0.04233 0.243416,-0.04233 0.433915,-0.08467 0.285749,-0.0635 0.518582,-0.0635 0.275166,0 0.455082,0.105833 0.179916,0.09525 0.222249,0.285749 0.09525,0.529165 -1.598078,0.624414 -0.09525,0.01058 -0.370416,0.03175 -0.264582,0.02117 -0.349248,0.05292 -0.07408,0.03175 -0.07408,0.09525 0,0.0635 -0.0635,0.127 -0.05292,0.05292 -0.07408,0.08467 -0.08467,0.03175 -0.28575,0.529165 -0.201082,0.486832 -0.201082,0.603248 -0.01058,0.02117 -0.04233,0.08467 -0.03175,0.0635 -0.03175,0.09525 -0.07408,0.190499 -0.232833,0.486831 -0.317499,0.836081 -0.402165,1.037164 l -0.116417,0.285749 q -0.232832,0.772581 -0.338665,1.047746 -0.03175,0.05292 -0.08467,0.09525 -0.04233,0.04233 -0.04233,0.116416 0,0.05292 -0.306915,0.846664 -0.306916,0.793748 -0.338666,0.804331 z" />
      <path
         id="path926"
         style="font-style:normal;font-variant:normal;font-weight:bold;font-stretch:normal;font-size:10.5833px;font-family:Caveat;-inkscape-font-specification:'Caveat, Bold';font-variant-ligatures:normal;font-variant-caps:normal;font-variant-numeric:normal;font-variant-east-asian:normal"
         d="m 27.094145,20.428309 q -0.0635,-0.07408 -0.169333,-0.105833 -0.09525,-0.03175 -0.275166,-0.03175 -0.07408,0 -0.370415,0.02117 -0.03175,0.01058 -0.105833,0.01058 -0.211666,0 -0.402166,-0.105833 -0.179916,-0.105833 -0.148166,-0.232833 0.01058,-0.148166 0.264583,-0.285749 0.264582,-0.148166 0.677331,-0.169333 l 0.455082,-0.03175 0.105833,-0.222249 0.211666,-0.783164 q 0.09525,-0.306916 0.190499,-0.677331 0.296332,-0.973664 0.359832,-1.280579 0.05292,-0.137583 0.1905,-0.603249 0.137583,-0.476248 0.169332,-0.645581 0.444499,-1.534578 0.349249,-1.534578 -0.09525,-0.01058 -0.560915,0.05292 -0.465665,0.0635 -0.507998,0.09525 -0.03175,0.04233 -0.08467,0.04233 -0.07408,0 -0.15875,-0.0635 -0.07408,-0.0635 -0.105833,-0.137583 -0.01058,-0.04233 -0.01058,-0.169332 0,-0.1905 0.05292,-0.232833 0.105833,-0.08467 0.550332,-0.201083 0.444499,-0.116416 0.878414,-0.190499 0.179916,-0.02117 0.359832,-0.08467 0.179916,-0.07408 0.275166,-0.15875 0.211666,-0.08467 0.370415,-0.07408 0.07408,0.04233 0.264583,0.04233 0.211666,0 0.465665,-0.03175 0.328082,-0.04233 0.571498,-0.04233 0.253999,0 0.359832,0.07408 0.105833,0.0635 0.15875,0.232833 0.04233,0.169333 0.04233,0.232832 0,0.22225 -0.222249,0.211666 -0.169333,0.05292 -0.867831,0.09525 -0.603248,0.07408 -0.666748,0.179916 -0.05292,0.05292 -0.08467,0.09525 -0.02117,0.04233 -0.05292,0.08467 0.03175,0.08467 -0.158749,0.709081 l -0.148166,0.486832 q -0.07408,0.222249 -0.232833,0.730248 -0.148166,0.497415 -0.190499,0.603248 -0.08467,0.253999 -0.08467,0.370415 l -0.444498,1.682745 q -0.232833,0.846664 -0.285749,1.068913 0.07408,0 0.317499,-0.02117 0.243416,-0.02117 0.476248,-0.05292 0.338666,-0.04233 0.550332,-0.04233 0.190499,0 0.243416,0.04233 0.05292,0.03175 0.0635,0.105833 0.01058,0.0635 0.02117,0.105833 0.137583,0.169333 0.137583,0.275166 0,0.264582 -0.814914,0.275166 l -0.296333,0.02117 q -0.709081,0.05292 -0.93133,0.08467 -0.211666,0.04233 -0.222249,0.126999 0,0.0635 -0.08467,0.127 -0.08467,0.0635 -0.190499,0.0635 -0.127,0 -0.253999,-0.137583 z" />
      <path
         id="path928"
         style="font-style:normal;font-variant:normal;font-weight:bold;font-stretch:normal;font-size:10.5833px;font-family:Caveat;-inkscape-font-specification:'Caveat, Bold';font-variant-ligatures:normal;font-variant-caps:normal;font-variant-numeric:normal;font-variant-east-asian:normal"
         d="m 31.909531,20.407142 q -0.328083,-0.116416 -0.634998,-0.338665 -0.296333,-0.22225 -0.433916,-0.560915 -0.169332,-0.476249 -0.169332,-1.12183 0,-0.624415 0.07408,-1.05833 0.07408,-0.444499 0.253999,-0.89958 l 0.09525,-0.22225 q 0.169332,-0.433915 0.243416,-0.571498 0.179916,-0.412749 0.634998,-1.068913 0.423331,-0.634998 0.666747,-0.941914 0.254,-0.317499 0.518582,-0.539748 0.264583,-0.232833 0.772581,-0.582082 0.306916,-0.222249 0.751414,-0.222249 0.349249,0 0.634998,0.169333 0.296333,0.169333 0.444499,0.529165 0.105833,0.179916 0.105833,0.497415 0,0.507998 -0.243416,1.100663 -0.243416,0.592665 -0.582082,0.899581 -0.07408,0.07408 -0.201082,0.07408 -0.127,0 -0.275166,-0.07408 -0.148166,-0.07408 -0.264583,-0.179916 -0.09525,-0.179917 -0.105833,-0.211666 -0.01058,-0.03175 0.04233,-0.04233 0.09525,-0.116416 0.275165,-0.444498 0.1905,-0.338666 0.254,-0.529165 l 0.0635,-0.296333 q 0.0635,-0.275165 0.0635,-0.359832 0,-0.09525 -0.07408,-0.169333 -0.03175,-0.03175 -0.08467,-0.03175 -0.08467,0 -0.296333,0.105833 -0.243416,0.105833 -0.582081,0.433916 -0.328082,0.317499 -0.656165,0.761997 -0.486832,0.634998 -0.751414,1.047747 -0.253999,0.412749 -0.391582,0.836081 l -0.116416,0.275165 q 0.01058,0.04233 -0.03175,0.211666 -0.04233,0.169333 -0.09525,0.275166 -0.148166,0.613832 -0.148166,1.111247 0,0.391582 0.07408,0.677331 0.08467,0.285749 0.232833,0.423332 0.08467,0.07408 0.243415,0.07408 0.169333,0 0.380999,-0.07408 0.222249,-0.08467 0.465665,-0.1905 0.243416,-0.105833 0.338666,-0.148166 0.243416,-0.09525 0.455082,-0.222249 0.222249,-0.127 0.328082,-0.232833 0.275166,-0.201082 0.444499,-0.201082 0.137583,-0.04233 0.211666,0.08467 0.08467,0.127 0.08467,0.349249 0,0.148166 -0.201083,0.359832 -0.201082,0.201083 -0.476248,0.359832 -0.116416,0.116417 -0.518582,0.275166 -0.338665,0.243416 -0.793747,0.433915 -0.444499,0.1905 -0.814914,0.1905 -0.08467,0 -0.211666,-0.02117 z" />
      <path
         id="path930"
         style="font-style:normal;font-variant:normal;font-weight:bold;font-stretch:normal;font-size:10.5833px;font-family:Caveat;-inkscape-font-specification:'Caveat, Bold';font-variant-ligatures:normal;font-variant-caps:normal;font-variant-numeric:normal;font-variant-east-asian:normal"
         d="m 38.979164,12.374418 q 0.359833,0 0.666748,0.190499 0.317499,0.179916 0.497415,0.518582 0.1905,0.328082 0.1905,0.751414 0,0.592665 -0.07408,1.555745 -0.07408,0.952497 -0.1905,1.809744 -0.126999,0.888998 -0.222249,2.285993 -0.0635,0.740831 -0.105833,1.015997 -0.03175,0.285749 -0.127,0.328082 l 0.01058,0.02117 q 0,0.04233 -0.07408,0.07408 -0.07408,0.03175 -0.179917,0.03175 -0.190499,0 -0.380998,-0.07408 -0.1905,-0.07408 -0.1905,-0.317499 0,-0.137583 0.05292,-0.666748 0.116416,-0.99483 0.137583,-1.629828 l 0.0635,-0.465665 h -0.264582 q -0.179916,0.05292 -0.518582,0.05292 l -0.666748,-0.01058 q -0.285749,0 -0.391582,0.02117 -0.09525,0.01058 -0.148166,0.08467 -0.05292,0.0635 -0.126999,0.264582 -0.05292,0.169333 -0.22225,0.518582 -0.370415,0.89958 -0.656164,1.280579 -0.285749,0.380999 -0.560915,0.380999 -0.07408,0 -0.243416,-0.0635 -0.15875,-0.0635 -0.15875,-0.169333 0,-0.148166 0.22225,-0.613831 0.232832,-0.465665 0.349249,-0.624415 0.01058,0 0,-0.01058 -0.01058,-0.02117 -0.01058,-0.0635 0,-0.232832 0.275166,-0.772581 0.04233,-0.126999 0.08467,-0.243416 0.05292,-0.126999 0.05292,-0.158749 l 0.201083,-0.391582 q 0,-0.0635 0.07408,-0.264583 0.08467,-0.211666 0.201082,-0.455082 0,-0.158749 0.0635,-0.306915 0.0635,-0.15875 0.169333,-0.338666 0.116416,-0.211666 0.116416,-0.275166 0,-0.02117 0.02117,-0.09525 0.03175,-0.07408 0.116416,-0.243416 -0.02117,0 -0.02117,-0.01058 0,-0.01058 0.08467,-0.116417 0,-0.09525 0.07408,-0.211666 0.08467,-0.126999 0.275166,-0.698498 l 0.211666,-0.455081 q 0.08467,-0.137583 0.222249,-0.518582 l 0.08467,-0.222249 0.08467,-0.232833 q 0.03175,-0.04233 0.09525,-0.158749 0.0635,-0.116417 0.201082,-0.1905 0.137583,-0.07408 0.370416,-0.08467 0.126999,-0.03175 0.264582,-0.03175 z m 0.22225,4.04282 q 0,-0.116416 0.07408,-0.857247 0.148166,-1.523995 0.158749,-1.873244 0,-0.15875 -0.01058,-0.179916 0,-0.09525 -0.169333,-0.179916 -0.169333,-0.08467 -0.243416,-0.08467 -0.09525,0 -0.158749,0.105833 -0.0635,0.105833 -0.127,0.264583 -0.0635,0.148166 -0.08467,0.211666 l -0.09525,0.243416 q -0.179916,0.444498 -0.423332,1.09008 -0.243416,0.634998 -0.275166,0.761997 -0.0635,0.0635 -0.222249,0.402166 -0.148166,0.328082 -0.148166,0.412748 0,0.264583 0.264582,0.264583 0.04233,0 0.169333,-0.01058 0.137583,-0.02117 0.296333,-0.07408 h 0.148166 q 0.169332,0 0.338665,-0.05292 0.275166,-0.04233 0.359832,-0.0635 0.09525,-0.02117 0.116417,-0.09525 0.03175,-0.07408 0.03175,-0.285749 z" />
      <path
         id="path932"
         style="font-style:normal;font-variant:normal;font-weight:bold;font-stretch:normal;font-size:10.5833px;font-family:Caveat;-inkscape-font-specification:'Caveat, Bold';font-variant-ligatures:normal;font-variant-caps:normal;font-variant-numeric:normal;font-variant-east-asian:normal"
         d="m 42.450479,20.227226 q -0.232833,0.03175 -0.370416,0.03175 -0.116416,0 -0.232832,-0.03175 -0.105833,-0.02117 -0.1905,-0.05292 -0.08467,-0.02117 -0.126999,-0.03175 -0.137583,-0.08467 -0.328083,-0.264583 -0.190499,-0.169333 -0.243416,-0.211666 0,-0.04233 -0.02117,-0.07408 -0.02117,-0.03175 -0.03175,-0.04233 -0.04233,0 -0.07408,-0.169333 -0.02117,-0.169333 -0.02117,-0.412749 0,-0.264582 0.03175,-0.497415 0.03175,-0.243415 0.07408,-0.317499 0,-0.04233 0.02117,-0.137582 0.03175,-0.09525 0.03175,-0.127 0,-0.08467 0.01058,-0.127 0.01058,-0.05292 0.04233,-0.05292 0.01058,0 0.03175,-0.01058 0.02117,-0.01058 0.02117,-0.03175 0,-0.05292 0.04233,-0.179916 0.04233,-0.127 0.0635,-0.201083 0.04233,-0.07408 0.169332,-0.433915 0.04233,-0.148167 0.116417,-0.328083 0.03175,-0.158749 0.190499,-0.571498 l 0.09525,-0.264582 q 0.148166,-0.254 0.148166,-0.380999 0.0635,-0.169333 0.603248,-1.206496 0.539748,-1.037164 0.698498,-1.291163 0.169333,-0.253999 0.328082,-0.370415 0.169333,-0.116417 0.285749,-0.116417 0.08467,0.03175 0.253999,0.22225 0.179917,0.190499 0.1905,0.275165 0,0.05292 -0.169333,0.359833 -0.169333,0.306915 -0.328082,0.476248 -0.02117,0.03175 -0.03175,0.0635 -0.01058,0.03175 -0.01058,0.04233 -0.07408,0.127 -0.275166,0.497415 -0.1905,0.359832 -0.211666,0.486832 -0.127,0.148166 -0.497415,1.037163 -0.169333,0.391582 -0.1905,0.412749 0,0.127 -0.05292,0.201083 -0.02117,0.05292 -0.116416,0.328082 -0.08467,0.275166 -0.211666,0.539748 -0.07408,0.296333 -0.179917,0.550332 -0.09525,0.243416 -0.158749,0.306916 -0.03175,0.07408 -0.04233,0.105833 0,0.03175 0.04233,0.02117 0.03175,-0.03175 0.04233,-0.03175 0.01058,0 0.01058,0.02117 0,0.03175 -0.05292,0.116416 -0.05292,0.137583 -0.05292,0.497415 0.01058,0.222249 0.105833,0.328082 0.105833,0.09525 0.328083,0.09525 0.592664,-0.01058 1.09008,-0.137583 0.232832,-0.07408 0.455081,-0.07408 0.359833,0 0.518582,0.1905 0.08467,0.126999 0.08467,0.412748 -0.0635,0.09525 -0.814915,0.317499 -0.740831,0.232833 -1.090079,0.243416 z" />
    </g>
    <g
       style="font-style:normal;font-variant:normal;font-weight:bold;font-stretch:normal;font-size:10.5833px;line-height:1.25;font-family:Caveat;-inkscape-font-specification:'Caveat, Bold';font-variant-ligatures:normal;font-variant-caps:normal;font-variant-numeric:normal;font-variant-east-asian:normal;letter-spacing:0px;word-spacing:0px;white-space:pre;shape-inside:url(#rect1131);display:inline;fill:#2e3436;fill-opacity:1;stroke:none"
       id="text1121"
       transform="matrix(1.4792177,0,0,1.4792177,16.174141,27.856844)"
       aria-label="MASS">
      <path
         id="path935"
         style="font-style:normal;font-variant:normal;font-weight:bold;font-stretch:normal;font-size:10.5833px;font-family:Caveat;-inkscape-font-specification:'Caveat, Bold';font-variant-ligatures:normal;font-variant-caps:normal;font-variant-numeric:normal;font-variant-east-asian:normal;fill:#2e3436;fill-opacity:1"
         d="m 6.7425128,20.322476 q -0.1587495,0 -0.3280823,-0.211666 -0.1693328,-0.201083 -0.1693328,-0.507999 0,-0.243415 0.1164163,-0.476248 0.211666,-0.444499 0.423332,-0.719664 0.074083,-0.105833 0.105833,-0.179916 0.042333,-0.07408 0.052916,-0.201083 0.1481662,-0.1905 0.3915821,-0.687915 0.4127487,-0.666748 1.1747462,-2.05316 0.105833,-0.190499 0.4127487,-0.751414 0.317499,-0.560915 0.423332,-0.666748 l 0.052917,-0.07408 q -0.03175,0.05292 0.105833,-0.243416 0.1481662,-0.296332 0.3069157,-0.529165 0.1693328,-0.243416 0.2963323,-0.243416 0.137583,0 0.317499,0.116417 0.179916,0.105832 0.306916,0.328082 Q 10.87,13.432748 10.87,13.72908 q 0,0.127 -0.01058,0.201083 l -0.105833,0.719664 -0.05292,0.232833 q -0.137583,0.698498 -0.412749,1.915577 -0.243416,1.079497 -0.243416,1.301746 0,0.0635 0.02117,0.105833 0.02117,0.03175 0.05292,0.03175 0.02117,0 0.105833,-0.0635 0.08467,-0.07408 0.148167,-0.211666 l 0.137582,-0.211666 0.179917,-0.264582 q 0.296332,-0.412749 0.730247,-1.111247 0.433916,-0.709081 1.407579,-2.423576 0.201083,-0.296332 0.328082,-0.518581 0.169333,-0.275166 0.328083,-0.518582 0.158749,-0.243416 0.243416,-0.306916 0.105833,-0.08467 0.264582,-0.08467 0.15875,0.01058 0.328082,0.116416 0.179916,0.105833 0.296333,0.296333 0.126999,0.190499 0.126999,0.412748 0,0.254 -0.158749,0.931331 -0.148166,0.677331 -0.349249,1.312329 -0.04233,0.222249 -0.264583,1.047747 -0.169332,0.613831 -0.253999,0.973663 -0.07408,0.359832 -0.07408,0.582082 v 0.08467 q -0.158749,0.285749 -0.158749,1.142996 -0.04233,0.349249 -0.15875,0.539749 -0.116416,0.201082 -0.190499,0.201082 l -0.03175,-0.01058 q -0.05292,0 -0.105833,0.04233 -0.04233,0.05292 -0.127,0.05292 -0.264582,0 -0.349249,-0.1905 -0.07408,-0.190499 -0.07408,-0.518581 0,-0.1905 0.01058,-0.317499 0.03175,-0.275166 0.677331,-2.868075 0.507998,-2.031993 0.507998,-2.127243 l -0.148166,0.253999 q -0.211666,0.402166 -0.529165,0.941914 l -0.740831,1.386412 q -0.137583,0.1905 -0.232833,0.370416 -0.08467,0.179916 -0.09525,0.211666 -0.127,0.253999 -0.507999,0.730248 -0.126999,0.158749 -0.148166,0.201082 -0.05292,0.116417 -0.338665,0.412749 -0.28575,0.285749 -0.603249,0.529165 -0.3174985,0.232832 -0.5291645,0.232832 -0.2857491,0 -0.5185817,-0.275165 -0.2222493,-0.275166 -0.2222493,-0.666748 0,-0.285749 0.105833,-0.952497 0.1693328,-0.730248 0.3598322,-1.481662 0.1904994,-0.751414 0.2645825,-0.984247 0.03175,-0.09525 0.03175,-0.211666 0,-0.07408 -0.021167,-0.09525 -0.010583,0 -0.03175,0.02117 -0.010583,0.02117 -0.03175,0.05292 -0.1587495,0.254 -0.4974151,0.888998 -0.3386656,0.634998 -0.7302477,1.492245 -1.5134118,2.783408 -1.7356611,3.037407 z" />
      <path
         id="path937"
         style="font-style:normal;font-variant:normal;font-weight:bold;font-stretch:normal;font-size:10.5833px;font-family:Caveat;-inkscape-font-specification:'Caveat, Bold';font-variant-ligatures:normal;font-variant-caps:normal;font-variant-numeric:normal;font-variant-east-asian:normal;fill:#2e3436;fill-opacity:1"
         d="m 14.214303,20.057893 q -0.116416,-0.0635 -0.169333,-0.116416 -0.04233,-0.05292 -0.04233,-0.137583 0,-0.105833 0.08467,-0.296332 0.09525,-0.201083 0.317499,-0.624415 0.0635,-0.137583 0.243416,-0.486832 0.455082,-0.86783 0.455082,-1.280579 -0.01058,-0.02117 -0.01058,-0.0635 0,-0.105833 0.169333,-0.190499 0.03175,-0.03175 0.222249,-0.179916 0.201083,-0.148166 0.317499,-0.338666 0.137583,-0.317499 0.349249,-0.698498 0.211666,-0.391582 0.730248,-1.269996 0.507998,-0.93133 1.079496,-1.682744 0.105833,-0.148166 0.232833,-0.232833 0.137583,-0.08467 0.232832,-0.08467 0.328083,0 0.666748,0.253999 0.349249,0.253999 0.455082,0.507998 0.04233,0.07408 0.04233,0.317499 0,0.328083 -0.07408,1.111247 -0.02117,0.137583 -0.04233,0.433915 -0.03175,0.476249 -0.09525,1.015997 -0.116416,1.185329 -0.169333,1.852077 -0.05292,0.666748 -0.05292,1.24883 0,0.296332 0.01058,0.433915 v 0.07408 l -0.01058,0.243416 q -0.0635,0.0635 -0.253999,0.0635 -0.211666,0 -0.423332,-0.07408 -0.211666,-0.0635 -0.232833,-0.15875 -0.01058,-0.01058 -0.03175,-0.02117 -0.02117,-0.01058 -0.02117,-0.09525 l 0.01058,-0.232833 0.03175,-0.592664 0.05292,-1.619245 -0.137582,0.01058 q -0.211666,0 -0.899581,0.08467 -0.677331,0.08467 -0.857247,0.137583 -0.09525,0 -0.232833,0.127 -0.137583,0.126999 -0.243416,0.328082 -0.03175,0.105833 -0.148166,0.306916 -0.116416,0.190499 -0.116416,0.222249 -0.0635,0.04233 -0.116416,0.116416 -0.04233,0.0635 -0.05292,0.08467 0,0.116416 -0.211666,0.603248 -0.201083,0.476248 -0.402165,0.783164 l -0.285749,0.402165 z m 2.529409,-3.640655 q 0.07408,-0.01058 0.296332,-0.04233 0.222249,-0.04233 0.391582,-0.05292 0.507999,-0.127 0.698498,-0.127 0.105833,0 0.148166,0.02117 0.03175,0.04233 0.0635,0.0635 0.04233,0.01058 0.05292,0.01058 0.02117,-0.08467 0.169333,-1.15358 0.148166,-1.068913 0.148166,-1.312329 0,-0.169333 -0.01058,-0.285749 -0.01058,-0.127 -0.02117,-0.15875 -0.09525,0 -0.433915,0.507999 -0.338665,0.497415 -0.656164,1.132413 -0.243416,0.433915 -0.338666,0.433915 -0.07408,0.07408 -0.317499,0.497415 -0.243416,0.423332 -0.190499,0.465665 z" />
      <path
         id="path939"
         style="font-style:normal;font-variant:normal;font-weight:bold;font-stretch:normal;font-size:10.5833px;font-family:Caveat;-inkscape-font-specification:'Caveat, Bold';font-variant-ligatures:normal;font-variant-caps:normal;font-variant-numeric:normal;font-variant-east-asian:normal;fill:#2e3436;fill-opacity:1"
         d="m 20.723024,20.470642 q -0.306915,0 -0.603248,-0.148166 -0.296332,-0.137583 -0.486832,-0.402166 -0.190499,-0.264582 -0.190499,-0.613831 0,-0.285749 0.179916,-0.529165 0.179916,-0.243416 0.444499,-0.243416 0.179916,0 0.338665,0.127 -0.01058,0.05292 -0.07408,0.232832 -0.05292,0.179916 -0.05292,0.306916 0,0.169333 0.158749,0.285749 0.169333,0.105833 0.507999,0.105833 1.111246,0 1.608661,-0.370415 0.507998,-0.370416 0.507998,-0.888997 -0.01058,-0.22225 -0.04233,-0.328083 -0.03175,-0.116416 -0.158749,-0.370415 l -0.201083,-0.391582 q 0,-0.0635 -0.201083,-0.285749 -0.201082,-0.232833 -0.264582,-0.306916 -0.137583,-0.285749 -0.232833,-0.444499 -0.08467,-0.158749 -0.211666,-0.243416 -0.03175,-0.04233 -0.08467,-0.179916 -0.05292,-0.137583 -0.07408,-0.148166 l -0.02117,-0.03175 -0.05292,-0.105833 q -0.09525,-0.211666 -0.09525,-0.433915 0,-0.275166 0.116416,-0.582082 0.127,-0.317499 0.349249,-0.603248 l 0.04233,-0.05292 q 0.08467,-0.169333 0.412749,-0.518582 0.338666,-0.349249 0.402165,-0.349249 0.05292,0 0.243416,-0.105833 0.211666,-0.116416 0.370416,-0.179916 0.169333,-0.07408 0.338665,-0.07408 0.15875,-0.05292 0.264583,-0.07408 0.105833,-0.03175 0.211666,-0.03175 l 0.232833,0.01058 0.232832,0.0635 q 0.444499,0.15875 0.624415,0.412749 0.179916,0.253999 0.179916,0.687914 0,0.169333 -0.15875,0.317499 -0.148166,0.148167 -0.359832,0.243416 -0.211666,0.08467 -0.359832,0.08467 -0.105833,0 -0.190499,-0.04233 -0.179916,-0.01058 -0.243416,-0.03175 -0.0635,-0.03175 -0.0635,-0.05292 -0.02117,0 -0.02117,-0.03175 0,-0.0635 0.07408,-0.0635 0.0635,-0.04233 0.1905,-0.211666 0.137583,-0.169332 0.137583,-0.285749 0,-0.169333 -0.296333,-0.169333 -0.539748,0 -0.93133,0.264583 -0.380999,0.253999 -0.582082,0.603248 -0.190499,0.349249 -0.190499,0.592665 0.01058,0.05292 0.02117,0.211666 0.01058,0.158749 0.08467,0.296332 0.412749,0.582082 0.656165,0.910164 0.05292,0.07408 0.126999,0.169333 0.07408,0.09525 0.0635,0.116416 v 0.04233 q 0.02117,0 0.169333,0.285749 0.148166,0.285749 0.148166,0.338666 0,-0.03175 0.08467,0.179916 0.09525,0.201083 0.169333,0.476249 0.07408,0.275165 0.07408,0.571498 -0.02117,0.222249 -0.148166,0.529165 -0.116416,0.306915 -0.285749,0.465665 l -0.116416,0.105833 q -0.243416,0.190499 -0.624415,0.391582 -0.380999,0.211666 -0.656164,0.285749 l -0.22225,0.0635 q -0.243416,0.0635 -0.603248,0.105833 -0.359832,0.04233 -0.666748,0.04233 z" />
      <path
         id="path941"
         style="font-style:normal;font-variant:normal;font-weight:bold;font-stretch:normal;font-size:10.5833px;font-family:Caveat;-inkscape-font-specification:'Caveat, Bold';font-variant-ligatures:normal;font-variant-caps:normal;font-variant-numeric:normal;font-variant-east-asian:normal;fill:#2e3436;fill-opacity:1"
         d="m 27.401065,20.089643 q -0.201083,0.03175 -0.412749,0.03175 -0.666747,0 -1.227662,-0.285749 -0.550332,-0.285749 -0.709081,-0.804331 -0.127,-0.306915 -0.05292,-0.306915 0.05292,0 0.05292,-0.03175 0,-0.03175 -0.04233,-0.07408 -0.03175,-0.03175 -0.03175,-0.179916 0,-0.211666 0.08467,-0.391583 0.08467,-0.179916 0.253999,-0.179916 0.105833,0 0.211666,0.0635 0.116416,0.05292 0.179916,0.127 0.0635,0.0635 0.02117,0.08467 0.01058,0.03175 0.04233,0.137583 0.03175,0.105833 0.02117,0.232833 0.04233,0.0635 0.08467,0.169332 0.04233,0.105833 0.09525,0.169333 0.05292,0.0635 0.169332,0.137583 0.05292,0.04233 0.127,0.105833 0.07408,0.0635 0.169333,0.09525 0.105833,0.02117 0.306916,0.02117 0.137582,0 0.179916,-0.03175 0.05292,-0.03175 0.137583,-0.158749 l 0.126999,-0.201083 q 0.04233,-0.296332 -0.222249,-1.121829 -0.253999,-0.836081 -0.687915,-1.820328 -0.0635,-0.127 -0.105833,-0.232833 -0.04233,-0.105833 -0.05292,-0.137582 0.01058,-0.05292 0.01058,-0.15875 0,-0.105833 -0.03175,-0.211666 -0.05292,-0.05292 -0.07408,-0.370415 l -0.02117,-0.232833 q 0.02117,-0.275166 0.04233,-0.380999 0.03175,-0.116416 0.137583,-0.275166 0.317499,-0.465665 0.846664,-0.80433 0.539748,-0.349249 1.206496,-0.455082 0.08467,-0.02117 0.349249,-0.02117 0.317499,0 0.666748,0.04233 0.349248,0.03175 0.465665,0.08467 0.592664,0.264582 0.656164,0.878414 0.01058,0.09525 0.02117,0.169332 0.02117,0.0635 0.02117,0.105833 0,0.0635 -0.0635,0.169333 -0.116417,0.137583 -0.624415,0.412749 -0.497415,0.264582 -0.761998,0.306916 -0.07408,0.03175 -0.105833,0.04233 -0.02117,0 -0.02117,-0.04233 0.03175,-0.05292 0.02117,-0.08467 -0.01058,-0.03175 -0.02117,-0.04233 -0.148166,0 -0.148166,-0.105833 0,-0.127 0.211666,-0.370416 0.190499,-0.211666 0.285749,-0.402165 0.105833,-0.190499 0.0635,-0.243416 -0.137583,-0.08467 -0.529165,-0.08467 -0.211666,0 -0.380999,0.03175 -1.111247,0.328082 -1.259413,0.99483 -0.04233,0.08467 -0.04233,0.190499 0,0.09525 0.04233,0.253999 0.04233,0.148167 0.105833,0.328083 0.02117,0.264582 0.04233,0.423332 0.03175,0.148166 0.03175,0.158749 0,0.03175 0.01058,0.127 0.02117,0.09525 0.03175,0.275166 0.07408,0.222249 0.391582,0.465665 0.03175,0.264582 0.09525,0.455082 0.04233,0.169332 0.05292,0.253999 0.179916,0.359832 0.264582,0.740831 0.08467,0.370415 0.08467,0.666748 0,0.158749 -0.03175,0.264582 -0.02117,0.09525 -0.0635,0.09525 -0.01058,0 -0.01058,0.03175 0,0.03175 0.01058,0.03175 0,0.126999 -0.285749,0.486831 -0.275166,0.349249 -0.412749,0.380999 z" />
    </g>
    <g
       style="font-style:normal;font-variant:normal;font-weight:normal;font-stretch:normal;font-size:8.7223px;line-height:1.25;font-family:'Permanent Marker';-inkscape-font-specification:'Permanent Marker, Normal';font-variant-ligatures:normal;font-variant-caps:normal;font-variant-numeric:normal;font-variant-east-asian:normal;letter-spacing:0px;word-spacing:0px;white-space:pre;display:inline;fill:#2e3436;fill-opacity:1;stroke:none"
       id="text1148"
       aria-label="WÜRZBURG">
      <path
         id="path944"
         style="font-style:normal;font-variant:normal;font-weight:normal;font-stretch:normal;font-size:8.7223px;font-family:'Permanent Marker';-inkscape-font-specification:'Permanent Marker, Normal';font-variant-ligatures:normal;font-variant-caps:normal;font-variant-numeric:normal;font-variant-east-asian:normal"
         d="m 70.46222,122.59053 q -0.04999,-0.09 -0.09929,-0.17145 -0.0493,-0.0815 -0.09723,-0.14597 -0.118322,-0.19555 -0.207749,-0.3507 -0.08943,-0.15515 -0.174473,-0.36193 0.01383,-0.14639 0.04586,-0.4908 0.04052,-0.34509 0.09323,-0.75098 0.05202,-0.41438 0.111854,-0.83794 0.06832,-0.42425 0.14623,-0.72963 0.07216,-0.27073 0.158559,-0.57679 0.09489,-0.30675 0.210871,-0.56393 0.123786,-0.26635 0.270717,-0.45766 0.146931,-0.19131 0.330977,-0.24034 0.05642,0.0638 0.119279,0.10146 0.06217,0.0292 0.114483,0.042 0.160774,0.19212 0.308263,0.3255 0.146804,0.12488 0.34455,0.24566 -0.03039,0.25882 -0.106933,0.58118 -0.06873,0.31318 -0.153764,0.63623 -0.07654,0.32236 -0.15445,0.62774 -0.07859,0.29689 -0.120902,0.51394 -0.03724,0.17391 -0.07037,0.39877 -0.02738,0.19021 -0.05709,0.45752 -0.02122,0.26663 -0.03833,0.58419 0.116124,-0.0436 0.252239,-0.15708 0.144606,-0.11421 0.263055,-0.23486 0.142551,-0.13968 0.275242,-0.29566 0.179522,-0.21103 0.302352,-0.38331 0.12283,-0.17227 0.219505,-0.35098 0.104479,-0.18789 0.206904,-0.40124 0.11023,-0.22254 0.256747,-0.5249 0.132962,-0.25855 0.271673,-0.55175 0.147202,-0.29387 0.296459,-0.56228 0.149256,-0.26841 0.293448,-0.49368 0.143506,-0.23376 0.269761,-0.36359 0.100928,0.0859 0.228011,0.17816 0.135574,0.0916 0.283334,0.12241 0.06697,0.0886 0.124073,0.1609 0.06491,0.0631 0.121333,0.12694 0.07546,0.0879 0.132563,0.16022 0.0656,0.0716 0.115583,0.16158 -0.003,0.0686 -0.01958,0.18104 -0.0081,0.11174 -0.02259,0.24964 -0.0152,0.12941 -0.0382,0.268 -0.01451,0.1379 -0.02971,0.26731 -0.05408,0.38891 -0.08078,0.58761 -0.0267,0.1987 -0.03477,0.31044 -0.0081,0.11175 -0.0104,0.18885 0.0062,0.0764 0.01713,0.21225 0.0082,0.10189 0.03342,0.2024 0.02451,0.092 0.04972,0.19254 0.033,0.0913 0.09929,0.17144 l 0.38219,-0.34702 q 0.159531,-0.14105 0.293862,-0.38262 0.142136,-0.25074 0.262498,-0.55954 0.128166,-0.31798 0.244417,-0.67773 0.115567,-0.36824 0.229763,-0.75345 0.07996,-0.27991 0.160614,-0.55133 0.08845,-0.28059 0.179649,-0.52723 0.09051,-0.25512 0.176639,-0.45861 0.09393,-0.21268 0.184859,-0.35674 0.240882,0.12584 0.413842,0.25716 0.18145,0.13064 0.314698,0.29934 0.141054,0.15953 0.22747,0.38329 0.09422,0.21459 0.152842,0.5175 -0.158018,0.37166 -0.289195,0.75824 -0.131177,0.38659 -0.261669,0.78167 -0.164039,0.50887 -0.345058,1.01912 -0.173214,0.50107 -0.400795,0.9638 -0.227581,0.46273 -0.528563,0.86301 -0.293178,0.39111 -0.697143,0.68007 -0.120919,-0.0159 -0.205822,-0.009 -0.09339,0.008 -0.15926,0.0385 -0.05738,0.0303 -0.104894,0.0768 -0.361116,-0.13323 -0.598717,-0.43025 -0.238286,-0.3055 -0.473561,-0.67962 -0.03027,-0.0574 -0.06834,-0.10558 -0.03026,-0.0574 -0.06902,-0.11407 l -0.165569,-0.25155 -0.09792,-0.15447 -0.10996,0.11997 -0.165281,0.1757 -0.09366,0.1101 q -0.243335,0.26745 -0.495845,0.5271 -0.253195,0.25116 -0.534601,0.47041 -0.282091,0.21076 -0.612113,0.35702 -0.321531,0.14558 -0.702909,0.18489 -0.07066,-0.0285 -0.132149,-0.0492 -0.053,-0.0214 -0.105993,-0.0427 -0.202812,-0.0776 -0.337015,-0.15227 -0.134204,-0.0746 -0.318394,-0.23922 z" />
      <path
         id="path946"
         style="font-style:normal;font-variant:normal;font-weight:normal;font-stretch:normal;font-size:8.7223px;font-family:'Permanent Marker';-inkscape-font-specification:'Permanent Marker, Normal';font-variant-ligatures:normal;font-variant-caps:normal;font-variant-numeric:normal;font-variant-east-asian:normal"
         d="m 78.173162,118.21144 q -0.04068,-0.10439 -0.07117,-0.12378 0.02491,-0.16261 0.0184,-0.30951 -3.7e-5,-0.15706 -0.013,-0.2938 -0.0093,-0.1201 -0.01484,-0.22357 0.0027,-0.10533 0.01566,-0.20419 0.133949,-0.0647 0.181968,-0.16265 0.05448,-0.1081 0.08126,-0.18387 0.147813,-0.0416 0.200485,-9.7e-4 0.06099,0.0388 0.145085,0.14224 0.06192,0.0822 0.160799,0.17366 0.09703,0.0831 0.25964,0.10803 0.04529,0.0859 0.09705,0.16166 0.05176,0.0757 0.113677,0.15796 0.113676,0.15795 0.222738,0.33439 0.107212,0.16812 0.152522,0.33257 -0.05723,0.21343 -0.05994,0.47582 0.0056,0.26053 0.04632,0.52198 0.04718,0.25129 0.123917,0.47855 0.07674,0.22726 0.170085,0.37229 l 0.07948,0.12193 0.179222,-0.0573 q 0.282677,-0.14142 0.503453,-0.28653 0.218925,-0.15342 0.397194,-0.33269 0.178268,-0.17928 0.332508,-0.38812 0.152391,-0.21715 0.308462,-0.4962 0.147756,-0.27721 0.240991,-0.60336 0.09139,-0.33447 0.120869,-0.67263 0.0378,-0.34 0.02571,-0.6689 -0.01209,-0.3289 -0.0565,-0.60698 0.14133,-0.10998 0.120963,-0.27997 l -0.04899,-0.10254 q -0.03419,-0.036 -0.04159,-0.0693 -9.35e-4,-0.0434 0.0083,-0.0804 0.02397,-0.20603 0.219804,-0.34558 0.17186,0.0665 0.322476,0.15513 0.15893,0.0868 0.292917,0.17917 0.06657,0.22079 0.153456,0.37598 0.08503,0.14688 0.176531,0.2836 0.08965,0.1284 0.160818,0.25218 0.07948,0.12194 0.138658,0.30947 -0.02765,0.26794 -0.01928,0.50168 0.01483,0.22358 0.03522,0.4721 l 0.0037,0.0952 q -0.09232,0.29105 -0.18094,0.59873 -0.08216,0.29751 -0.129221,0.51741 -0.03879,0.061 -0.06556,0.13675 -0.01846,0.0739 -0.03692,0.14783 -0.01108,0.0286 -0.03139,0.0943 -0.01199,0.0637 -0.03139,0.0942 l -0.216199,-0.0304 0.0075,0.26886 -0.125635,0.0628 -0.07388,0.1386 q -0.117244,0.37513 -0.28348,0.64772 -0.157921,0.27074 -0.385142,0.50454 -0.218907,0.23195 -0.516345,0.46391 -0.290973,0.22181 -0.676172,0.49075 -0.171842,0.0121 -0.29656,0.0398 -0.118255,0.0176 -0.236509,0.0352 -0.116404,0.0259 -0.226343,0.0416 -0.10994,0.0157 -0.254987,0.0306 -0.04991,-0.0674 -0.115508,-0.0877 -0.0656,-0.0203 -0.115489,-0.009 -0.184789,-0.0461 -0.301231,-0.17731 -0.116442,-0.13117 -0.248598,-0.29374 -0.06377,-0.0905 -0.135855,-0.1792 -0.06377,-0.0905 -0.150635,-0.16719 l 0.155194,-0.0869 -0.271673,-0.20134 q -0.03049,-0.0194 -0.0693,-0.0369 -0.03049,-0.0194 -0.06284,-0.0471 l -0.03515,-0.15798 q -0.18494,-0.6744 -0.312574,-1.2481 -0.12117,-0.58388 -0.06955,-1.05784 z m 4.141671,-4.44676 0.02866,0.0896 q -0.03601,0.11272 -0.06278,0.18849 -0.01846,0.0739 -0.01844,0.15245 -0.07111,0.1118 -0.115451,0.14785 -0.04619,0.0277 -0.08406,0.0536 -0.08406,0.0536 -0.109921,0.0943 l -0.0554,0.14321 -0.09979,-0.0563 -0.09882,0.14415 q -0.108108,-0.0545 -0.15708,-0.0785 -0.05082,-0.0323 -0.09794,-0.048 -0.03881,-0.0175 -0.110874,-0.0277 -0.0656,-0.0203 -0.211583,-0.0489 l -0.125654,-0.0157 0.0092,-0.11549 q 0.0074,-0.0453 -0.02498,-0.15152 -0.02405,-0.10809 -0.03238,-0.18477 -0.02128,-0.13488 -0.05549,-0.24943 -0.03421,-0.11456 -0.0047,-0.21712 0.154259,-0.1303 0.246635,-0.18576 0.085,-0.0102 0.161677,-0.0185 0.07668,-0.008 0.153362,-0.0167 0.06005,-0.005 0.07853,-2e-5 0.01663,-0.004 0.01663,-0.004 0.0083,-0.002 0.02494,-0.006 0.01478,-0.012 0.06097,-0.0397 l 0.103475,-0.006 q 0.06375,0.012 0.108108,0.0545 0.05082,0.0323 0.101644,0.0647 0.04806,0.0591 0.08501,0.0683 l 0.101625,-0.0139 0.05545,0.0924 q 0.06007,0.0739 0.07763,0.11362 0.02403,0.0296 0.05176,0.0757 z m -2.558205,0.22881 q 0.113658,0.0794 0.223616,0.14223 0.109959,0.0628 0.148785,0.15887 -0.0037,0.14044 -0.01751,0.19587 -0.0055,0.0536 -0.01753,0.11734 -0.08774,0.11551 -0.206893,0.24673 -0.04064,0.0527 -0.05542,0.0647 -0.01478,0.012 -0.02124,0.0222 0,0 -0.0046,0.0185 0.0019,0.008 -0.012,0.0637 l -0.0702,0.0767 q -0.06097,0.0397 -0.11917,0.0527 -0.06005,0.005 -0.120103,0.009 -0.02494,0.006 -0.06652,0.0148 -0.03511,-9.1e-4 -0.05174,0.003 l -0.05172,0.0813 -0.109024,-0.0194 q -0.100709,-0.0212 -0.144132,-0.0203 -0.03696,-0.009 -0.08593,-0.0332 l -0.08593,-0.0332 q -0.061,-0.11732 -0.100747,-0.17828 -0.03328,-0.0711 -0.08133,-0.13025 -0.03145,-0.14135 -0.02592,-0.19494 0.0055,-0.0536 0.01291,-0.0989 0.02954,-0.10256 0.01198,-0.14228 l -0.06655,-0.14226 0.12287,-0.0361 -0.03885,-0.17461 q 0.114555,-0.0342 0.172757,-0.0472 0.0582,-0.0129 0.10624,-0.0324 0.04619,-0.0277 0.09884,-0.0656 0.06097,-0.0397 0.189367,-0.12939 l 0.105305,-0.0758 0.07393,0.097 q 0.02403,0.0296 0.115508,0.0877 0.09979,0.0563 0.170944,0.10158 z" />
      <path
         id="path948"
         style="font-style:normal;font-variant:normal;font-weight:normal;font-stretch:normal;font-size:8.7223px;font-family:'Permanent Marker';-inkscape-font-specification:'Permanent Marker, Normal';font-variant-ligatures:normal;font-variant-caps:normal;font-variant-numeric:normal;font-variant-east-asian:normal"
         d="m 84.401261,120.36018 q -0.03754,0.0218 -0.09183,-0.0316 -0.05705,-0.0615 -0.119406,-0.11219 l 0.08865,-0.0303 q -0.117073,-0.15801 -0.142525,-0.31135 -0.02015,-0.16415 -0.02672,-0.31495 -0.0093,-0.15885 -0.02927,-0.29607 -0.01464,-0.14803 -0.12068,-0.2738 0.04857,0.0104 0.0509,-0.0354 0.0076,-0.0566 -0.0064,-0.12386 -0.0087,-0.078 -0.04157,-0.14782 -0.02757,-0.0806 -0.05218,-0.12619 0.0193,-0.28569 -0.01527,-0.57094 -0.02651,-0.28802 -0.06639,-0.56246 -0.04263,-0.2825 -0.06893,-0.54357 -0.021,-0.2719 0.0013,-0.52259 0.107315,-0.0547 0.244748,-0.0477 0.142734,-0.004 0.205088,0.0469 0.183665,-0.27889 0.283343,-0.61908 0.09968,-0.34019 0.204871,-0.66426 0.110495,-0.33489 0.291402,-0.62184 0.180908,-0.28696 0.537849,-0.45408 0.240295,0.0708 0.537218,0.1493 0.294165,0.0704 0.52725,0.25174 0.07826,0.0182 0.151218,0.0473 0.07826,0.0182 0.15652,0.0365 l 0.04136,0.12088 q 0.148674,0.0662 0.270837,0.18643 0.127465,0.10943 0.239024,0.25132 0.116861,0.13107 0.228419,0.27295 0.111559,0.14189 0.230965,0.25408 4.25e-4,0.0539 0.01421,0.0942 0.01909,0.0295 0.04093,0.067 0.02715,0.0267 0.05175,0.0723 0.02184,0.0375 0.0439,0.10201 0.113894,0.43817 -0.04496,0.7896 -0.153548,0.34061 -0.450255,0.63117 -0.291405,0.27975 -0.644952,0.53574 -0.356304,0.24793 -0.631803,0.49523 0.01103,0.0322 0.04327,0.0212 0.0403,-0.0138 0.04072,0.0401 0.291408,0.0623 0.450685,0.10689 0.167337,0.0418 0.302225,0.0677 0.140189,0.0151 0.290983,0.008 0.158853,-0.009 0.427991,-0.0384 0.269138,-0.029 0.419932,-0.0356 0.156096,-0.0174 0.277197,-0.0318 0.118345,-0.0225 0.252807,-0.0505 0.134463,-0.028 0.360335,-0.0783 0.118982,0.0583 0.216755,0.15991 0.09777,0.10159 0.163308,0.21421 0.06554,0.11262 0.08802,0.23096 0.02778,0.10753 -0.0066,0.19131 0.01909,0.0295 0.05132,0.0184 0.03754,-0.0218 0.08059,-0.0276 -0.04263,0.0596 -0.06363,0.1298 -0.021,0.0702 -0.04199,0.1404 -0.021,0.0702 -0.06087,0.13786 -0.03181,0.0649 -0.109648,0.10053 -0.251534,0.21209 -0.738697,0.26172 -0.487163,0.0496 -1.279308,0.0236 -0.390664,-0.0104 -0.644108,-0.0407 -0.253444,-0.0303 -0.447716,-0.0719 -0.197029,-0.0496 -0.372638,-0.11558 -0.178365,-0.074 -0.410814,-0.17454 -0.02142,0.0163 -0.02121,0.0433 0.0083,0.0242 -0.01315,0.0405 0.06999,0.33616 0.05027,0.56797 -0.01166,0.22905 -0.101161,0.49374 -0.13722,0.0199 -0.169033,0.0848 -0.02375,0.0622 -0.07444,0.1245 -0.07508,0.0437 -0.123647,0.0333 -0.04581,-0.002 -0.08632,-0.0155 -0.04051,-0.0131 -0.08908,-0.0235 -0.04857,-0.0104 -0.134463,0.028 -0.04899,-0.0643 -0.09523,-0.12046 -0.04899,-0.0643 -0.151006,-0.0204 -6.37e-4,-0.0808 -0.02524,-0.1264 -0.02736,-0.0537 -0.05726,-0.0884 -0.03266,-0.0429 -0.06532,-0.0857 -0.0246,-0.0456 -0.02248,-0.11834 z m 1.431762,-4.604 q -0.05238,0.18897 -0.137217,0.36204 -0.08759,0.165 -0.169667,0.34613 -0.07677,0.1703 -0.118342,0.36457 -0.04432,0.18622 -0.01018,0.4176 0.324703,-0.1561 0.645801,-0.42799 0.31834,-0.27996 0.601898,-0.53001 -0.142312,-0.28441 -0.372216,-0.40381 -0.23266,-0.12747 -0.440081,-0.12853 z" />
      <path
         id="path950"
         style="font-style:normal;font-variant:normal;font-weight:normal;font-stretch:normal;font-size:8.7223px;font-family:'Permanent Marker';-inkscape-font-specification:'Permanent Marker, Normal';font-variant-ligatures:normal;font-variant-caps:normal;font-variant-numeric:normal;font-variant-east-asian:normal"
         d="m 89.375132,118.65675 q -0.131452,-0.22062 -0.202669,-0.413 -0.07893,-0.18877 -0.112067,-0.38016 -0.04085,-0.18778 -0.04362,-0.37457 0.0049,-0.1904 0.01449,-0.41117 0.08996,-0.0891 0.14594,-0.19055 0.05237,-0.10914 0.100639,-0.20697 0.04466,-0.10553 0.09243,-0.18432 0.05188,-0.0901 0.117701,-0.13031 l 0.05549,-0.0824 q 0.07126,-0.24965 0.226401,-0.50093 0.151527,-0.259 0.325705,-0.50978 0.146435,-0.2096 0.285154,-0.41558 0.135109,-0.21369 0.224917,-0.44381 0.08076,-0.0284 0.116713,-0.0922 0.0133,-0.0721 -0.02329,-0.13016 0.01592,-0.0263 0.02413,-0.0489 0.01231,-0.034 0.02824,-0.0602 0.03645,-0.0829 0.119184,-0.18744 0.08684,-0.11587 0.07848,-0.23422 l 0.110331,-0.28674 -0.274127,0.13769 q -0.208303,0.0975 -0.436635,0.23254 -0.220617,0.13145 -0.383125,0.22631 -0.131648,0.0804 -0.274622,0.15672 -0.135258,0.0727 -0.309091,0.16345 -0.189907,-0.024 -0.366511,-0.12002 -0.168889,-0.0996 -0.310034,-0.2405 -0.133431,-0.14446 -0.227792,-0.326 -0.09436,-0.18155 -0.119782,-0.37655 0.0545,-0.0443 0.09357,-0.0814 0.04317,-0.0484 0.07863,-0.0932 0.08125,-0.0474 0.108009,-0.0505 0.03447,-0.007 0.07304,-0.0248 0.426793,-0.29376 0.71996,-0.43095 0.324027,-0.15163 0.622438,-0.19723 0.324027,-0.15164 0.644938,-0.33002 0.328626,-0.182 0.70468,-0.28274 0.210775,-0.19268 0.475704,-0.26963 0.261319,-0.0847 0.525408,0.0174 0.08764,0.14708 0.196783,0.19945 0.105537,0.0447 0.239312,0.0291 0.195794,0.23753 0.227941,0.467 0.03986,0.22586 -0.02319,0.45286 -0.06666,0.21928 -0.201773,0.43298 -0.135109,0.21369 -0.266113,0.41606 -0.01429,0.11014 -0.06617,0.20025 -0.05188,0.0901 -0.09243,0.18431 -0.113149,0.54198 -0.380745,1.01517 -0.263492,0.46186 -0.546024,0.92322 -0.199301,0.33778 -0.398601,0.67556 -0.191586,0.33417 -0.353301,0.69198 l -0.06058,0.13179 0.128187,0.0529 q 0.158553,0.0575 0.312852,-0.0147 0.08486,-0.0397 0.151182,-0.099 0.07403,-0.0629 0.129027,-0.12621 0.0586,-0.0556 0.105388,-0.0963 0.05089,-0.052 0.08946,-0.0701 l 0.09208,-0.0243 q 0.08684,-0.11587 0.145445,-0.17151 0.06271,-0.067 0.129027,-0.12621 0.0545,-0.0443 0.113103,-0.1 0.06632,-0.0592 0.117701,-0.13031 0.200588,-0.0939 0.360475,-0.23452 0.156276,-0.14837 0.301227,-0.30084 0.08996,-0.0891 0.1722,-0.17462 0.08996,-0.0891 0.183526,-0.17053 0.06385,0.036 0.128187,0.0529 0.06845,0.006 0.125566,0.007 0.08749,0.006 0.132787,0.0225 0.04169,0.009 0.07107,0.0514 l 0.149998,0.24015 0.07898,-0.25326 q 0.166267,0.0538 0.228136,0.16597 0.05826,0.1044 0.110435,0.29628 -0.160082,0.44168 -0.528122,0.82081 -0.360325,0.37551 -0.785486,0.75315 -0.09357,0.0814 -0.179421,0.1592 -0.08946,0.0701 -0.179421,0.15919 l -0.0681,-0.16562 -0.139213,0.22502 q -0.02413,0.0489 -0.03645,0.0829 -0.0087,0.0417 -0.01741,0.0834 -0.213891,0.16592 -0.361464,0.2726 -0.139857,0.10306 -0.264285,0.1989 -0.136247,0.11078 -0.264285,0.19891 -0.120323,0.0845 -0.282337,0.16034 -0.054,0.0253 -0.111619,0.0428 -0.04629,0.0217 -0.103904,0.0392 -0.05351,0.006 -0.12245,0.0197 l -0.201876,-0.15004 -0.09604,0.1766 q -0.117357,-0.0297 -0.261468,-0.0563 -0.128682,-0.0338 -0.241934,-0.0749 -0.113252,-0.041 -0.15707,-0.11459 l -0.05104,-0.089 -0.10341,0.0202 q -0.02265,-0.008 -0.06696,-0.0627 -0.03709,-0.0391 -0.09683,-0.0863 -0.05974,-0.0473 -0.139513,-0.057 z" />
      <path
         id="path952"
         style="font-style:normal;font-variant:normal;font-weight:normal;font-stretch:normal;font-size:8.7223px;font-family:'Permanent Marker';-inkscape-font-specification:'Permanent Marker, Normal';font-variant-ligatures:normal;font-variant-caps:normal;font-variant-numeric:normal;font-variant-east-asian:normal"
         d="m 93.468083,112.971 q -0.380817,0.0627 -0.72194,-0.0385 -0.333851,-0.10564 -0.643785,-0.33563 -0.04706,-0.24069 0.03306,-0.46917 0.07569,-0.23576 0.214347,-0.45006 0.145932,-0.21875 0.335859,-0.41444 0.189928,-0.19569 0.374184,-0.36797 0.0525,-0.0121 0.04363,-0.0266 -0.0089,-0.0145 0.04523,-0.008 0.212976,-0.23969 0.510375,-0.52091 0.292963,-0.28848 0.691661,-0.50178 0.03316,-0.0601 0.105871,-0.1045 0.06828,-0.0516 0.148265,-0.10043 0.07999,-0.0488 0.152701,-0.0932 0.06828,-0.0516 0.105871,-0.1045 0.07468,0.0243 0.170813,-0.0144 0.09169,-0.046 0.226149,-0.0382 0.03352,-0.0105 -0.01331,-0.0218 -0.05127,-0.0186 -0.02378,-0.0553 0.09453,-0.0577 0.193861,-0.0584 0.09933,-7.4e-4 0.192993,0.0219 0.0965,0.011 0.174014,0.0236 0.08479,0.008 0.150232,-0.0318 0.114241,0.0401 0.245861,0.0596 0.134455,0.008 0.258803,0.0317 0.131619,0.0195 0.235753,0.0757 0.111406,0.0518 0.177949,0.16084 0.01935,0.0481 0.06014,0.0332 0.04079,-0.0149 0.07752,0.0126 0.171409,0.2646 0.196656,0.5186 0.03252,0.24957 -0.0036,0.5011 -0.04056,0.24426 -0.111813,0.48729 -0.06398,0.23858 -0.09283,0.48568 0.1538,0.0558 0.320542,0.0838 0.169578,0.0163 0.339156,0.0326 0.169578,0.0163 0.333485,0.056 0.166742,0.028 0.314872,0.10724 0.04843,0.0303 0.130018,5e-4 0.07505,0.074 0.169076,0.1463 0.09686,0.0606 0.186454,0.12572 0.08516,0.0578 0.132352,0.11881 0.0472,0.061 0.03019,0.13126 0.06865,-0.002 0.115842,0.059 0.04276,0.0537 0.05767,0.0945 -0.0402,0.29392 -0.04957,0.4094 -0.0094,0.11547 -0.01628,0.16957 -0.0069,0.0541 -0.01825,0.10094 -0.01134,0.0468 -0.05991,0.19619 -0.243433,0.46781 -0.54984,0.91416 -0.303571,0.43465 -0.714479,0.77513 -0.0053,0.0731 -0.06027,0.14653 -0.04326,0.0763 -0.117212,0.15133 -0.07395,0.0751 -0.166878,0.1517 -0.08566,0.0722 -0.156771,0.13556 -0.04523,0.008 -0.07468,-0.0243 -0.01774,-0.0291 -0.06297,-0.0215 0.04596,0.0917 -0.02675,0.13606 -0.06101,0.0472 -0.184989,0.0729 -0.123981,0.0257 -0.272979,0.0268 -0.148998,0.001 -0.264474,-0.008 0.0036,0.0876 -0.01024,0.19582 -0.0065,0.10377 -0.04697,0.16835 -0.110673,0.0476 -0.16601,0.0713 -0.04806,0.0194 -0.06508,0.0896 -0.07592,0.006 -0.127183,-0.0122 -0.04683,-0.0113 -0.0981,-0.0299 -0.04683,-0.0113 -0.0965,-0.011 -0.0541,-0.007 -0.140126,0.0156 -0.0076,-0.0452 -0.08836,-0.0958 -0.08516,-0.0578 -0.159471,-0.0324 8.68e-4,-0.0803 -0.117809,-0.12769 -0.123114,-0.0546 -0.23045,-0.14876 -0.02378,-0.0553 -0.05483,-0.10624 -0.02822,-0.0626 -0.04756,-0.11067 -0.01651,-0.0598 -0.01688,-0.10944 -3.66e-4,-0.0497 0.04166,-0.0953 -0.06494,-0.0901 -0.169075,-0.1463 0.03439,-0.0908 0.01184,-0.17685 -0.02698,-0.0933 -0.06124,-0.18216 -0.02698,-0.0933 -0.04226,-0.18375 -0.01971,-0.0977 0.01468,-0.18856 -0.02785,-0.0129 -0.05127,-0.0186 -0.02342,-0.006 -0.0456,-0.042 -0.0018,-0.24833 -0.03362,-0.39856 -0.03622,-0.1575 -0.08539,-0.28716 -0.04633,-0.14136 -0.101529,-0.29726 -0.0552,-0.1559 -0.09659,-0.42001 -0.08712,-0.12645 -0.112871,-0.25043 -0.02575,-0.12398 -0.04706,-0.24069 -0.01848,-0.12842 -0.0632,-0.2508 -0.04473,-0.12238 -0.162536,-0.25007 -0.114743,0.09 -0.128554,0.19816 -0.0065,0.10377 0.05433,0.23626 -0.02995,0.0981 -0.131756,0.1602 -0.106237,0.0548 -0.168479,0.13272 z m 4.055637,-0.54851 q -0.369476,0.0159 -0.619909,0.12875 -0.243161,0.10843 -0.431854,0.27344 -0.185857,0.15329 -0.339427,0.32681 -0.15357,0.17351 -0.324884,0.31793 0.0563,0.3049 0.136381,0.66514 0.08008,0.36024 0.158562,0.7015 0.239593,-0.19606 0.413376,-0.40186 0.173784,-0.2058 0.324152,-0.41727 0.145932,-0.21874 0.289028,-0.42578 0.138661,-0.2143 0.300737,-0.42294 -0.03142,-0.10056 0.01024,-0.19582 0.04166,-0.0953 0.08776,-0.18326 0.04166,-0.0953 0.05707,-0.18448 0.01541,-0.0892 -0.06124,-0.18216 z m -1.89752,-1.96545 q -0.459706,0.2605 -0.838325,0.6212 -0.37862,0.3607 -0.565848,0.72437 0.220844,0.0349 0.431216,0.0363 0.217643,-0.003 0.395225,0.10811 0.264745,-0.35109 0.39787,-0.72167 0.12869,-0.37784 0.179862,-0.76827 z" />
      <path
         id="path954"
         style="font-style:normal;font-variant:normal;font-weight:normal;font-stretch:normal;font-size:8.7223px;font-family:'Permanent Marker';-inkscape-font-specification:'Permanent Marker, Normal';font-variant-ligatures:normal;font-variant-caps:normal;font-variant-numeric:normal;font-variant-east-asian:normal"
         d="m 97.88766,110.11853 q -0.08128,-0.0771 -0.117135,-0.0817 -0.04677,-0.15772 -0.11525,-0.28784 -0.06697,-0.14207 -0.136966,-0.26024 -0.05957,-0.10471 -0.108701,-0.19594 -0.0424,-0.0965 -0.07285,-0.19139 0.0936,-0.11562 0.0953,-0.22469 0.0032,-0.12102 -0.0048,-0.20097 0.115987,-0.10063 0.180955,-0.0863 0.0717,0.009 0.191869,0.0669 0.09105,0.048 0.21947,0.0886 0.123202,0.0339 0.280922,-0.0129 0.07758,0.0584 0.156686,0.10488 0.0791,0.0465 0.170152,0.0945 0.170152,0.0945 0.344005,0.20759 0.168635,0.1064 0.279703,0.23585 0.03918,0.21747 0.148548,0.456 0.1161,0.2333 0.264351,0.45247 0.149768,0.20723 0.316036,0.38011 0.166269,0.17289 0.312519,0.26431 l 0.12387,0.0764 0.1377,-0.12824 q 0.19546,-0.2484 0.33335,-0.47375 0.13267,-0.23209 0.21754,-0.47024 0.0849,-0.23816 0.13541,-0.49281 0.0453,-0.26139 0.0676,-0.58034 0.0155,-0.31374 -0.0391,-0.64853 -0.0599,-0.34153 -0.17729,-0.66 -0.1107,-0.32369 -0.2618,-0.61608 -0.1511,-0.29239 -0.30979,-0.52503 0.081,-0.15972 -0.01,-0.30482 l -0.088,-0.0719 q -0.0463,-0.018 -0.0672,-0.045 -0.0194,-0.0389 -0.0267,-0.0763 -0.0661,-0.19661 0.0516,-0.40631 0.1838,-0.0131 0.35784,0.003 0.18077,0.0108 0.34134,0.0373 0.15431,0.17138 0.29905,0.27475 0.13952,0.0966 0.28055,0.18132 0.13582,0.078 0.25296,0.1596 0.12386,0.0764 0.25731,0.22088 0.0892,0.25417 0.19635,0.46206 0.1087,0.19594 0.23305,0.41207 l 0.0439,0.0845 q 0.0405,0.30264 0.0915,0.61874 0.0525,0.30416 0.1036,0.52315 -0.009,0.0717 -0.001,0.15165 0.0148,0.0747 0.0296,0.14947 0.002,0.0306 0.0118,0.0986 0.0163,0.0628 0.0118,0.0986 l -0.20856,0.0646 0.12132,0.24004 -0.0869,0.1104 -0.008,0.15687 q 0.0538,0.38932 0.0196,0.70676 -0.0275,0.31222 -0.13341,0.62056 -0.0992,0.30312 -0.26941,0.63973 -0.16871,0.32465 -0.40256,0.73211 -0.15032,0.0841 -0.25133,0.16238 -0.0995,0.0663 -0.19897,0.1326 -0.0943,0.073 -0.18702,0.13412 -0.0927,0.0611 -0.21766,0.1363 -0.0739,-0.0397 -0.14188,-0.0302 -0.068,0.01 -0.1084,0.0409 -0.18684,0.037 -0.34808,-0.032 -0.16123,-0.069 -0.35007,-0.15979 -0.0963,-0.0547 -0.199268,-0.10422 -0.09627,-0.0547 -0.207519,-0.0871 l 0.10337,-0.14473 -0.331573,-0.0664 q -0.03585,-0.005 -0.07843,-0.004 -0.03585,-0.005 -0.07692,-0.0158 l -0.09912,-0.12794 q -0.454703,-0.53128 -0.814656,-0.99589 -0.358436,-0.47656 -0.513718,-0.92734 z" />
      <path
         id="path956"
         style="font-style:normal;font-variant:normal;font-weight:normal;font-stretch:normal;font-size:8.7223px;font-family:'Permanent Marker';-inkscape-font-specification:'Permanent Marker, Normal';font-variant-ligatures:normal;font-variant-caps:normal;font-variant-numeric:normal;font-variant-east-asian:normal"
         d="m 104.44043,109.40937 q -0.0247,0.0357 -0.0966,0.0103 -0.0778,-0.0315 -0.15572,-0.051 l 0.0674,-0.0651 q -0.17304,-0.0934 -0.26113,-0.22149 -0.0879,-0.14011 -0.1578,-0.27388 -0.0758,-0.13989 -0.15209,-0.2557 -0.076,-0.12785 -0.22543,-0.19676 0.0484,-0.0112 0.0311,-0.0537 -0.0171,-0.0545 -0.0583,-0.10947 -0.041,-0.067 -0.10034,-0.11623 -0.0592,-0.0613 -0.10078,-0.0921 -0.1037,-0.26689 -0.25601,-0.51055 -0.14618,-0.24957 -0.2987,-0.48119 -0.15843,-0.23774 -0.29299,-0.46301 -0.13435,-0.23732 -0.22052,-0.47378 0.074,-0.0951 0.2014,-0.14703 0.12763,-0.064 0.2056,-0.0446 0.048,-0.33047 -0.006,-0.68082 -0.054,-0.35035 -0.0962,-0.68844 -0.042,-0.35013 1.2e-4,-0.68673 0.0421,-0.3366 0.29445,-0.63935 0.24765,-0.0378 0.54983,-0.0927 0.29625,-0.061 0.58425,0.004 0.0786,-0.0167 0.157,-0.0213 0.0786,-0.0167 0.15721,-0.0334 l 0.0887,0.0919 q 0.16271,-0.003 0.32434,0.0539 0.16185,0.045 0.32306,0.1262 0.16143,0.0691 0.32264,0.15029 0.16121,0.0812 0.31693,0.13212 0.0232,0.0486 0.0528,0.0793 0.0298,0.0186 0.0655,0.0433 0.0359,0.0127 0.0775,0.0435 0.0357,0.0247 0.083,0.0738 0.289,0.34849 0.29422,0.73412 0.005,0.37358 -0.14001,0.76256 -0.14523,0.37694 -0.35681,0.75873 -0.2175,0.37565 -0.36209,0.71646 0.0237,0.0245 0.0482,8.5e-4 0.0306,-0.0296 0.0539,0.019 0.29034,-0.0671 0.45347,-0.0944 0.16926,-0.0332 0.30238,-0.0669 0.13334,-0.0458 0.26711,-0.11575 0.13989,-0.0758 0.3713,-0.21631 0.2314,-0.14048 0.36516,-0.21039 0.13398,-0.082 0.23753,-0.1464 0.0976,-0.0705 0.20753,-0.15294 0.10989,-0.0824 0.29311,-0.22372 0.13249,0.002 0.26412,0.0529 0.13163,0.0505 0.23875,0.12471 0.10712,0.0742 0.17768,0.17182 0.0708,0.0856 0.0752,0.17603 0.0298,0.0186 0.0543,-0.005 0.0247,-0.0357 0.0613,-0.0592 -0.0133,0.072 -0.003,0.14453 0.0108,0.0725 0.0215,0.14496 0.0108,0.0725 0.003,0.15066 -0.001,0.0723 -0.0567,0.13755 -0.13782,0.29875 -0.55793,0.55034 -0.42011,0.25159 -1.14853,0.56398 -0.35818,0.1563 -0.60056,0.23634 -0.24238,0.08 -0.43594,0.12481 -0.19948,0.0386 -0.38648,0.0534 -0.19292,0.009 -0.44606,0.0162 -0.0125,0.0239 -8.6e-4,0.0482 0.0177,0.0184 0.005,0.0423 0.20597,0.27473 0.28644,0.49302 0.0866,0.21237 0.11782,0.49003 -0.11581,0.0763 -0.11709,0.14853 0.005,0.0663 -0.0146,0.14431 -0.0495,0.0714 -0.0979,0.0826 -0.0425,0.0173 -0.0847,0.0226 -0.0423,0.005 -0.0907,0.0165 -0.0484,0.0112 -0.10989,0.0824 -0.0716,-0.0374 -0.13733,-0.0687 -0.0716,-0.0374 -0.14539,0.0456 -0.0348,-0.0729 -0.0765,-0.10376 -0.0475,-0.037 -0.0894,-0.0558 -0.0477,-0.0249 -0.0955,-0.0499 -0.0416,-0.0309 -0.0706,-0.0976 z m -0.65632,-4.7766 q 0.0327,0.19335 0.0293,0.38605 -0.009,0.18658 -0.007,0.38542 0.003,0.18679 0.0475,0.38035 0.0388,0.18743 0.16792,0.38249 0.22783,-0.27909 0.40328,-0.66152 0.16953,-0.38856 0.32025,-0.73528 -0.24951,-0.19719 -0.50836,-0.2078 -0.26475,-0.0167 -0.45304,0.0703 z" />
      <path
         id="path958"
         style="font-style:normal;font-variant:normal;font-weight:normal;font-stretch:normal;font-size:8.7223px;font-family:'Permanent Marker';-inkscape-font-specification:'Permanent Marker, Normal';font-variant-ligatures:normal;font-variant-caps:normal;font-variant-numeric:normal;font-variant-east-asian:normal"
         d="m 107.30463,104.92647 q -0.0725,-0.0594 -0.11561,-0.1277 -0.0431,-0.0684 -0.14618,-0.13072 -0.26763,-0.56048 -0.4262,-1.11972 -0.15975,-0.57122 -0.1463,-1.16573 0.002,-0.0971 -0.0167,-0.16782 -0.0203,-0.0827 -0.0395,-0.15344 -0.0138,-0.0773 -0.009,-0.15043 -0.002,-0.0785 0.0444,-0.1618 -0.0562,-0.32126 -0.0255,-0.68143 0.0307,-0.36018 0.0908,-0.72933 0.0601,-0.369148 0.11361,-0.743695 0.0589,-0.381138 0.0483,-0.731143 0.1055,-0.03471 0.1247,-0.08505 0.018,-0.06232 0.069,-0.09766 0.17379,0.04323 0.30206,-0.0059 0.12709,-0.06107 0.26076,-0.116748 0.13248,-0.06766 0.27513,-0.09397 0.14145,-0.03829 0.29785,0.01272 -0.0378,0.04613 -0.005,0.07311 0.0384,0.02039 0.0887,0.0396 0.0503,0.0192 0.0833,0.04618 0.0329,0.02698 -0.0156,0.08629 0.0461,0.03778 0.0839,-0.0084 0.0378,-0.04613 0.0839,-0.0084 0.0395,0.03238 0.0497,0.07374 0.009,0.02937 0.0725,0.05937 -0.0241,0.24451 -0.0871,0.523163 -0.0643,0.266666 -0.13691,0.570485 -0.0673,0.29723 -0.12554,0.62383 -0.0595,0.31461 -0.0794,0.66161 -0.0199,0.34699 -0.0123,0.72756 0.013,0.37398 0.0632,0.75637 0.0436,0.37699 0.12851,0.74381 0.0784,0.36142 0.19328,0.66472 0.0437,0.0138 0.0863,0.0156 0.048,-0.005 0.0917,0.009 0.21826,-0.23963 0.38318,-0.46789 0.15833,-0.23366 0.38255,-0.41335 0.002,-0.0426 -0.0257,-0.0761 -0.0276,-0.0336 -0.0138,-0.0773 0.32085,-0.4859 0.54042,-0.95566 0.21297,-0.47516 0.43674,-0.9635 -0.14327,0.0808 -0.24519,0.15152 -0.0719,0.007 -0.0659,-0.054 0.005,-0.0731 -0.007,-0.12646 -0.14566,0.0569 -0.30388,0.0484 -0.15282,-0.0151 -0.32177,-0.1314 -0.002,-0.0785 -0.0545,-0.12169 -0.0527,-0.0432 -0.12345,-0.024 -0.0402,0.0222 -0.0324,0.0395 0.008,0.0174 0.0156,0.0348 0.0132,0.0108 0.0156,0.0348 0.008,0.0174 -0.027,0.0329 -0.0671,-0.066 -0.0916,-0.1301 -0.0245,-0.0641 -0.0797,-0.13128 l 0.0855,-0.843799 q 0.13606,-0.0317 0.31109,-0.09755 0.17503,-0.06584 0.36086,-0.144869 0.18582,-0.07902 0.38363,-0.159242 0.19122,-0.08561 0.36625,-0.151459 0.14987,-0.07545 0.2991,-0.09635 0.14265,-0.0263 0.29309,-0.03522 0.14384,-0.01432 0.28768,-0.02864 0.14384,-0.01432 0.28831,-0.08317 0.0947,0.09953 0.18213,0.127138 0.0875,0.02761 0.16896,0.116344 0.12152,0.308703 0.13396,0.616159 0.006,0.30206 -0.0656,0.61786 -0.0661,0.30922 -0.19206,0.6244 -0.1326,0.30979 -0.27598,0.63275 -0.14997,0.31757 -0.29216,0.65252 -0.14339,0.32297 -0.25502,0.66093 -0.0917,0.11203 -0.14992,0.19651 -0.0582,0.0845 -0.10435,0.16776 -0.0462,0.0833 -0.0924,0.16657 -0.0462,0.0833 -0.10976,0.17435 -0.0336,0.0276 -0.0246,0.0569 0.0144,0.0228 0.0114,0.0533 -0.0882,0.14799 -0.17452,0.25343 -0.0863,0.10544 -0.14572,0.17793 -0.0756,0.0923 -0.13014,0.2127 -0.0546,0.12044 -0.13135,0.20071 -0.51207,0.57151 -1.18271,0.58379 -0.67064,0.0123 -1.38958,-0.52144 -0.0275,-0.0336 -0.0503,-0.0192 -0.0294,0.009 -0.0533,0.0114 z" />
    </g>
  </g>
  <g
     style="display:inline"
     inkscape:groupmode="layer"
     id="layer11"
     inkscape:label="tire"
     transform="translate(14.838927,14.835126)">
    <path
       id="path2160"
       style="fill:#2e3436;stroke:#2e3436;stroke-width:1.11742;stroke-linecap:round;stroke-linejoin:round;stroke-miterlimit:4;stroke-dasharray:4.46969, 1.11742;stroke-dashoffset:0"
       d="m 54.999872,-14.276415 c -38.223491,0 -69.280075,31.035923 -69.280075,69.280056 0,38.247082 31.056584,69.274169 69.280075,69.274169 38.25298,0 69.280078,-31.027087 69.280078,-69.274169 0,-38.244133 -31.027098,-69.280056 -69.280078,-69.280056 z m 0,4.9489935 c 35.510093,0 64.354658,28.8209735 64.354658,64.3310625 0,35.504192 -28.844565,64.319269 -64.354658,64.319269 -35.510093,0 -64.3251651,-28.815077 -64.3251651,-64.319269 0,-35.510089 28.8150721,-64.3310625 64.3251651,-64.3310625 z" />
    <path
       id="path2164"
       style="fill:url(#radialGradient4129);stroke-width:0.294935"
       d="m 54.999872,-9.3274215 c -35.510093,0 -64.3251651,28.8209735 -64.3251651,64.3310625 0,35.504192 28.8150721,64.319269 64.3251651,64.319269 35.510093,0 64.354658,-28.815077 64.354658,-64.319269 0,-35.510089 -28.844565,-64.3310625 -64.354658,-64.3310625 z m 0,4.9489938 c 32.796696,0 59.399768,26.6030717 59.399768,59.3820687 0,32.790797 -26.603072,59.393869 -59.399768,59.393869 -32.767207,0 -59.3702683,-26.603072 -59.3702683,-59.393869 0,-32.778997 26.6030613,-59.3820687 59.3702683,-59.3820687 z" />
  </g>
</svg>
